<svg width="24" height="24" viewBox="0 0 24 24" fill="none" xmlns="http://www.w3.org/2000/svg">
<g clip-path="url(#clip0_16_400)">
<path d="M8.8 18.4003L9.4656 17.9552C9.39243 17.8458 9.2934 17.7561 9.1773 17.6941C9.0612 17.6321 8.9316 17.5997 8.8 17.5998V18.4003ZM12 23.2001L11.3344 23.6436C11.4075 23.7532 11.5064 23.8431 11.6225 23.9053C11.7387 23.9675 11.8683 24 12 24C12.1317 24 12.2613 23.9675 12.3775 23.9053C12.4936 23.8431 12.5925 23.7532 12.6656 23.6436L12 23.2001ZM15.2 18.4003V17.5998C15.0684 17.5997 14.9388 17.6321 14.8227 17.6941C14.7066 17.7561 14.6076 17.8458 14.5344 17.9552L15.2 18.4003ZM8.1344 18.8438L11.3344 23.6436L12.6656 22.755L9.4656 17.9552L8.1344 18.8438ZM12.6656 23.6436L15.8656 18.8438L14.5344 17.9552L11.3344 22.755L12.6656 23.6436ZM15.2 19.2008H21.6V17.5998H15.2V19.2008ZM21.6 19.2008C22.9264 19.2008 24 18.1281 24 16.7993H22.4C22.4 17.2428 22.0432 17.5998 21.6 17.5998V19.2008ZM24 16.7993V2.4015H22.4V16.8009H24V16.7993ZM24 2.4015C24 1.07267 22.9264 0 21.6 0V1.601C22.0432 1.601 22.4 1.95803 22.4 2.4015H24ZM21.6 0H2.4V1.601H21.6V0ZM2.4 0C1.0736 0 0 1.07267 0 2.4015H1.6C1.6 1.95803 1.9568 1.601 2.4 1.601V0ZM0 2.4015V16.7993H1.6V2.4015H0ZM0 16.7993C0 18.1281 1.0736 19.2008 2.4 19.2008V17.5998C2.29488 17.6 2.19076 17.5795 2.0936 17.5393C1.99645 17.4992 1.90817 17.4402 1.83384 17.3658C1.75952 17.2914 1.7006 17.2031 1.66047 17.1059C1.62034 17.0087 1.59979 16.9045 1.6 16.7993H0ZM2.4 19.2008H8.8V17.5998H2.4V19.2008ZM8 12.808H16V11.207H8V12.808ZM6.4 8.00501H17.6V6.40401H6.4V8.00501Z" fill="black"/>
</g>
<defs>
<clipPath id="clip0_16_400">
<rect width="24" height="24" fill="white"/>
</clipPath>
</defs>
</svg>
