<svg width="27" height="27" viewBox="0 0 27 27" fill="none" xmlns="http://www.w3.org/2000/svg">
<path d="M14.5313 2.53125C12.1579 2.53125 9.8378 3.23504 7.86441 4.55361C5.89102 5.87219 4.35295 7.74633 3.4447 9.93905C2.53645 12.1318 2.29881 14.5446 2.76183 16.8723C3.22485 19.2001 4.36774 21.3383 6.04597 23.0165C7.7242 24.6948 9.8624 25.8376 12.1902 26.3007C14.5179 26.7637 16.9307 26.5261 19.1235 25.6178C21.3162 24.7095 23.1903 23.1715 24.5089 21.1981C25.8275 19.2247 26.5312 16.9046 26.5312 14.5312C26.5279 11.3497 25.2625 8.29939 23.0128 6.04968C20.7631 3.79997 17.7128 2.53461 14.5313 2.53125ZM22.8239 8.67779L15.4543 12.932V4.4201C16.9176 4.55425 18.3344 5.00442 19.6068 5.73952C20.8791 6.47461 21.9768 7.47711 22.8239 8.67779ZM13.6082 4.4201V13.997L5.31318 18.7855C4.63222 17.3095 4.31556 15.6917 4.38981 14.0679C4.46406 12.4441 4.92706 10.8619 5.73987 9.45428C6.55269 8.04664 7.69157 6.85471 9.06077 5.97868C10.43 5.10266 11.9895 4.56815 13.6082 4.4201ZM14.5313 24.6851C12.9057 24.6844 11.3041 24.2935 9.86101 23.5452C8.41795 22.7968 7.17566 21.713 6.23856 20.3847L23.7493 10.2759C24.4634 11.8229 24.7767 13.5247 24.6603 15.2246C24.544 16.9245 24.0017 18.5678 23.0835 20.0031C22.1653 21.4384 20.9007 22.6196 19.4061 23.4378C17.9116 24.256 16.2351 24.6849 14.5313 24.6851Z" fill="black"/>
</svg>
