<svg width="27" height="27" viewBox="0 0 27 27" fill="none" xmlns="http://www.w3.org/2000/svg">
<path d="M23.8639 25.5396C22.1083 22.3834 19.4029 20.1201 16.2455 19.0472C17.8073 18.0804 19.0207 16.6072 19.6994 14.8538C20.378 13.1004 20.4845 11.1638 20.0023 9.34145C19.5202 7.51906 18.4762 5.91164 17.0305 4.76604C15.5849 3.62044 13.8176 3 12 3C10.1825 3 8.41515 3.62044 6.9695 4.76604C5.52385 5.91164 4.47979 7.51906 3.99765 9.34145C3.51552 11.1638 3.62196 13.1004 4.30065 14.8538C4.97933 16.6072 6.19272 18.0804 7.75448 19.0472C4.59714 20.1189 1.89168 22.3822 0.136065 25.5396C0.071683 25.6488 0.0289793 25.7703 0.0104728 25.8969C-0.00803369 26.0235 -0.00196803 26.1527 0.0283119 26.2768C0.0585918 26.4009 0.112473 26.5175 0.186775 26.6196C0.261078 26.7218 0.354297 26.8074 0.460934 26.8714C0.56757 26.9355 0.685463 26.9767 0.807656 26.9926C0.92985 27.0085 1.05387 26.9988 1.1724 26.964C1.29092 26.9293 1.40156 26.8702 1.49777 26.7903C1.59399 26.7103 1.67384 26.6112 1.7326 26.4986C3.90435 22.5955 7.74296 20.2652 12 20.2652C16.257 20.2652 20.0957 22.5955 22.2674 26.4986C22.3262 26.6112 22.406 26.7103 22.5022 26.7903C22.5984 26.8702 22.7091 26.9293 22.8276 26.964C22.9461 26.9988 23.0702 27.0085 23.1923 26.9926C23.3145 26.9767 23.4324 26.9355 23.5391 26.8714C23.6457 26.8074 23.7389 26.7218 23.8132 26.6196C23.8875 26.5175 23.9414 26.4009 23.9717 26.2768C24.002 26.1527 24.008 26.0235 23.9895 25.8969C23.971 25.7703 23.9283 25.6488 23.8639 25.5396ZM5.54469 11.6342C5.54469 10.3065 5.92329 9.00863 6.63261 7.90469C7.34193 6.80075 8.35011 5.94033 9.52966 5.43224C10.7092 4.92416 12.0072 4.79122 13.2594 5.05024C14.5116 5.30926 15.6618 5.94861 16.5646 6.88743C17.4674 7.82626 18.0822 9.02239 18.3313 10.3246C18.5804 11.6268 18.4525 12.9765 17.9639 14.2032C17.4753 15.4298 16.6479 16.4782 15.5864 17.2158C14.5248 17.9535 13.2767 18.3472 12 18.3472C10.2885 18.3453 8.64764 17.6374 7.43743 16.3789C6.22722 15.1204 5.54652 13.414 5.54469 11.6342Z" fill="black"/>
</svg>
