<svg width="27" height="27" viewBox="0 0 27 27" fill="none" xmlns="http://www.w3.org/2000/svg">
<path d="M24.1277 15.0404C23.9319 14.8214 23.8239 14.5399 23.8239 14.2485C23.8239 13.957 23.9319 13.6755 24.1277 13.4566L25.6912 11.7288C25.8634 11.54 25.9704 11.3025 25.9967 11.0503C26.0231 10.7981 25.9674 10.5442 25.8377 10.325L23.3948 6.17357C23.2665 5.95463 23.071 5.78108 22.8363 5.67766C22.6016 5.57425 22.3397 5.54625 22.0879 5.59765L19.7916 6.05359C19.4994 6.11289 19.1952 6.06509 18.9364 5.91921C18.6776 5.77332 18.4822 5.53944 18.3869 5.2617L17.6418 3.06599C17.5599 2.82768 17.4038 2.62069 17.1955 2.47429C16.9873 2.32788 16.7375 2.24946 16.4815 2.25011H11.5957C11.3293 2.23645 11.0657 2.30881 10.8452 2.45613C10.6246 2.60346 10.4592 2.81765 10.3742 3.06599L9.69022 5.2617C9.59495 5.53944 9.39949 5.77332 9.14071 5.91921C8.88194 6.06509 8.57775 6.11289 8.28556 6.05359L5.92817 5.59765C5.68944 5.56451 5.44607 5.60152 5.22871 5.704C5.01135 5.80649 4.82973 5.96987 4.70673 6.17357L2.26384 10.325C2.1309 10.5418 2.07112 10.7942 2.09306 11.0464C2.115 11.2985 2.21753 11.5374 2.38598 11.7288L3.93722 13.4566C4.13304 13.6755 4.24103 13.957 4.24103 14.2485C4.24103 14.5399 4.13304 14.8214 3.93722 15.0404L2.38598 16.7681C2.21753 16.9596 2.115 17.1984 2.09306 17.4506C2.07112 17.7027 2.1309 17.9552 2.26384 18.1719L4.70673 22.3234C4.8351 22.5423 5.03056 22.7159 5.26524 22.8193C5.49992 22.9227 5.76184 22.9507 6.01368 22.8993L8.30999 22.4434C8.60218 22.3841 8.90637 22.4319 9.16514 22.5777C9.42392 22.7236 9.61938 22.9575 9.71465 23.2353L10.4597 25.431C10.5447 25.6793 10.7101 25.8935 10.9307 26.0408C11.1512 26.1881 11.4148 26.2605 11.6812 26.2468H16.567C16.823 26.2475 17.0728 26.1691 17.2811 26.0227C17.4893 25.8763 17.6454 25.6693 17.7273 25.431L18.4724 23.2353C18.5677 22.9575 18.7631 22.7236 19.0219 22.5777C19.2807 22.4319 19.5849 22.3841 19.8771 22.4434L22.1734 22.8993C22.4252 22.9507 22.6871 22.9227 22.9218 22.8193C23.1565 22.7159 23.352 22.5423 23.4803 22.3234L25.9232 18.1719C26.0529 17.9527 26.1086 17.6988 26.0822 17.4466C26.0559 17.1944 25.9489 16.9569 25.7767 16.7681L24.1277 15.0404ZM22.3078 16.6481L23.2849 17.728L21.7215 20.3916L20.2802 20.1037C19.4004 19.927 18.4853 20.0738 17.7085 20.5162C16.9317 20.9585 16.3473 21.6657 16.0662 22.5033L15.602 23.8472H12.4751L12.0354 22.4794C11.7543 21.6417 11.1699 20.9345 10.3931 20.4922C9.61624 20.0498 8.70112 19.903 7.82141 20.0797L6.38011 20.3676L4.79223 17.716L5.76939 16.6361C6.37028 15.9762 6.70249 15.1219 6.70249 14.2365C6.70249 13.3511 6.37028 12.4967 5.76939 11.8368L4.79223 10.7569L6.35568 8.11731L7.79699 8.40527C8.67669 8.58191 9.59181 8.43512 10.3686 7.99276C11.1454 7.5504 11.7299 6.84327 12.011 6.00559L12.4751 4.64978H15.602L16.0662 6.01759C16.3473 6.85527 16.9317 7.5624 17.7085 8.00476C18.4853 8.44712 19.4004 8.59391 20.2802 8.41727L21.7215 8.12931L23.2849 10.7929L22.3078 11.8728C21.7136 12.5312 21.3855 13.3806 21.3855 14.2605C21.3855 15.1403 21.7136 15.9897 22.3078 16.6481ZM14.0386 9.44913C13.0723 9.44913 12.1276 9.7306 11.3242 10.258C10.5207 10.7853 9.89449 11.5349 9.5247 12.4118C9.1549 13.2888 9.05815 14.2538 9.24667 15.1848C9.43519 16.1158 9.90051 16.9709 10.5838 17.6421C11.2671 18.3133 12.1377 18.7704 13.0854 18.9556C14.0331 19.1408 15.0155 19.0457 15.9083 18.6825C16.801 18.3192 17.5641 17.7041 18.1009 16.9148C18.6378 16.1256 18.9243 15.1977 18.9243 14.2485C18.9243 12.9756 18.4096 11.7549 17.4933 10.8548C16.5771 9.95477 15.3344 9.44913 14.0386 9.44913ZM14.0386 16.6481C13.5554 16.6481 13.0831 16.5074 12.6814 16.2437C12.2796 15.98 11.9665 15.6053 11.7816 15.1668C11.5967 14.7283 11.5484 14.2458 11.6426 13.7803C11.7369 13.3148 11.9695 12.8872 12.3112 12.5516C12.6528 12.216 13.0881 11.9875 13.562 11.8949C14.0359 11.8023 14.527 11.8498 14.9734 12.0315C15.4198 12.2131 15.8013 12.5207 16.0698 12.9153C16.3382 13.3099 16.4815 13.7739 16.4815 14.2485C16.4815 14.8849 16.2241 15.4953 15.766 15.9453C15.3078 16.3953 14.6865 16.6481 14.0386 16.6481Z" fill="black"/>
</svg>
