<svg width="73" height="31" viewBox="0 0 73 31" fill="none" xmlns="http://www.w3.org/2000/svg">
<path d="M0.96875 23V0.15625H5.8125V19H15.0781V23H0.96875ZM34.5625 14.2344C34.5625 15.6927 34.3646 16.9844 33.9688 18.1094C33.5833 19.2344 33.0156 20.1875 32.2656 20.9688C31.526 21.7396 30.6302 22.3229 29.5781 22.7188C28.5365 23.1146 27.3594 23.3125 26.0469 23.3125C24.8177 23.3125 23.6875 23.1146 22.6562 22.7188C21.6354 22.3229 20.7448 21.7396 19.9844 20.9688C19.2344 20.1875 18.651 19.2344 18.2344 18.1094C17.8281 16.9844 17.625 15.6927 17.625 14.2344C17.625 12.2969 17.9688 10.6562 18.6562 9.3125C19.3438 7.96875 20.3229 6.94792 21.5938 6.25C22.8646 5.55208 24.3802 5.20312 26.1406 5.20312C27.776 5.20312 29.224 5.55208 30.4844 6.25C31.7552 6.94792 32.75 7.96875 33.4688 9.3125C34.1979 10.6562 34.5625 12.2969 34.5625 14.2344ZM22.4844 14.2344C22.4844 15.3802 22.6094 16.3438 22.8594 17.125C23.1094 17.9062 23.5 18.4948 24.0312 18.8906C24.5625 19.2865 25.2552 19.4844 26.1094 19.4844C26.9531 19.4844 27.6354 19.2865 28.1562 18.8906C28.6875 18.4948 29.0729 17.9062 29.3125 17.125C29.5625 16.3438 29.6875 15.3802 29.6875 14.2344C29.6875 13.0781 29.5625 12.1198 29.3125 11.3594C29.0729 10.5885 28.6875 10.0104 28.1562 9.625C27.625 9.23958 26.9323 9.04688 26.0781 9.04688C24.8177 9.04688 23.901 9.47917 23.3281 10.3438C22.7656 11.2083 22.4844 12.5052 22.4844 14.2344ZM43.6094 30.6875C41.1719 30.6875 39.3073 30.2604 38.0156 29.4062C36.7344 28.5625 36.0938 27.375 36.0938 25.8438C36.0938 24.7917 36.4219 23.9115 37.0781 23.2031C37.7344 22.4948 38.6979 21.9896 39.9688 21.6875C39.4792 21.4792 39.0521 21.1406 38.6875 20.6719C38.3229 20.1927 38.1406 19.6875 38.1406 19.1562C38.1406 18.4896 38.3333 17.9375 38.7188 17.5C39.1042 17.0521 39.6615 16.6146 40.3906 16.1875C39.474 15.7917 38.7448 15.1562 38.2031 14.2812C37.6719 13.4062 37.4062 12.375 37.4062 11.1875C37.4062 9.91667 37.6823 8.83854 38.2344 7.95312C38.7969 7.05729 39.6094 6.375 40.6719 5.90625C41.7448 5.4375 43.0469 5.20312 44.5781 5.20312C44.901 5.20312 45.276 5.22396 45.7031 5.26562C46.1302 5.30729 46.5208 5.35417 46.875 5.40625C47.2396 5.45833 47.4844 5.5 47.6094 5.53125H53.7031V7.95312L50.9688 8.65625C51.2188 9.04167 51.4062 9.45312 51.5312 9.89062C51.6562 10.3281 51.7188 10.7917 51.7188 11.2812C51.7188 13.1562 51.0625 14.6198 49.75 15.6719C48.4479 16.7135 46.6354 17.2344 44.3125 17.2344C43.7604 17.2031 43.2396 17.1615 42.75 17.1094C42.5104 17.2969 42.3281 17.4948 42.2031 17.7031C42.0781 17.9115 42.0156 18.1302 42.0156 18.3594C42.0156 18.5885 42.1094 18.7812 42.2969 18.9375C42.4948 19.0833 42.7865 19.1979 43.1719 19.2812C43.5677 19.3542 44.0573 19.3906 44.6406 19.3906H47.6094C49.526 19.3906 50.9844 19.8021 51.9844 20.625C52.9948 21.4479 53.5 22.6562 53.5 24.25C53.5 26.2917 52.6458 27.875 50.9375 29C49.2396 30.125 46.7969 30.6875 43.6094 30.6875ZM43.8125 27.5781C44.9479 27.5781 45.9219 27.4688 46.7344 27.25C47.5573 27.0417 48.1875 26.7396 48.625 26.3438C49.0625 25.9583 49.2812 25.4948 49.2812 24.9531C49.2812 24.5156 49.151 24.1667 48.8906 23.9062C48.6406 23.6562 48.2552 23.4792 47.7344 23.375C47.224 23.2708 46.5677 23.2188 45.7656 23.2188H43.2969C42.7135 23.2188 42.1875 23.3125 41.7188 23.5C41.2604 23.6875 40.8958 23.9479 40.625 24.2812C40.3542 24.625 40.2188 25.0208 40.2188 25.4688C40.2188 26.125 40.5312 26.6406 41.1562 27.0156C41.7917 27.3906 42.6771 27.5781 43.8125 27.5781ZM44.5781 14.3281C45.474 14.3281 46.1302 14.0521 46.5469 13.5C46.9635 12.9479 47.1719 12.1979 47.1719 11.25C47.1719 10.1979 46.9531 9.41146 46.5156 8.89062C46.0885 8.35938 45.4427 8.09375 44.5781 8.09375C43.7031 8.09375 43.0469 8.35938 42.6094 8.89062C42.1719 9.41146 41.9531 10.1979 41.9531 11.25C41.9531 12.1979 42.1667 12.9479 42.5938 13.5C43.0312 14.0521 43.6927 14.3281 44.5781 14.3281ZM72.4688 14.2344C72.4688 15.6927 72.2708 16.9844 71.875 18.1094C71.4896 19.2344 70.9219 20.1875 70.1719 20.9688C69.4323 21.7396 68.5365 22.3229 67.4844 22.7188C66.4427 23.1146 65.2656 23.3125 63.9531 23.3125C62.724 23.3125 61.5938 23.1146 60.5625 22.7188C59.5417 22.3229 58.651 21.7396 57.8906 20.9688C57.1406 20.1875 56.5573 19.2344 56.1406 18.1094C55.7344 16.9844 55.5312 15.6927 55.5312 14.2344C55.5312 12.2969 55.875 10.6562 56.5625 9.3125C57.25 7.96875 58.2292 6.94792 59.5 6.25C60.7708 5.55208 62.2865 5.20312 64.0469 5.20312C65.6823 5.20312 67.1302 5.55208 68.3906 6.25C69.6615 6.94792 70.6562 7.96875 71.375 9.3125C72.1042 10.6562 72.4688 12.2969 72.4688 14.2344ZM60.3906 14.2344C60.3906 15.3802 60.5156 16.3438 60.7656 17.125C61.0156 17.9062 61.4062 18.4948 61.9375 18.8906C62.4688 19.2865 63.1615 19.4844 64.0156 19.4844C64.8594 19.4844 65.5417 19.2865 66.0625 18.8906C66.5938 18.4948 66.9792 17.9062 67.2188 17.125C67.4688 16.3438 67.5938 15.3802 67.5938 14.2344C67.5938 13.0781 67.4688 12.1198 67.2188 11.3594C66.9792 10.5885 66.5938 10.0104 66.0625 9.625C65.5312 9.23958 64.8385 9.04688 63.9844 9.04688C62.724 9.04688 61.8073 9.47917 61.2344 10.3438C60.6719 11.2083 60.3906 12.5052 60.3906 14.2344Z" fill="black"/>
</svg>
