<svg width="1276" height="212" viewBox="0 0 1276 212" fill="none" xmlns="http://www.w3.org/2000/svg">
<g clip-path="url(#clip0_57_77)">
<mask id="mask0_57_77" style="mask-type:luminance" maskUnits="userSpaceOnUse" x="0" y="0" width="1276" height="212">
<path d="M0 0H1276V212H0V0Z" fill="white"/>
</mask>
<g mask="url(#mask0_57_77)">
<path d="M0 0H1276V212H0V0Z" fill="white"/>
<path d="M1252 0H24C10.7452 0 0 10.7452 0 24V188C0 201.255 10.7452 212 24 212H1252C1265.25 212 1276 201.255 1276 188V24C1276 10.7452 1265.25 0 1252 0Z" fill="url(#paint0_linear_57_77)"/>
<path d="M960.157 63.006C967.31 61.846 972.167 55.106 971.006 47.952C969.845 40.799 963.105 35.942 955.952 37.102C948.799 38.264 943.941 45.004 945.102 52.157C946.263 59.31 953.003 64.166 960.157 63.006Z" fill="#FF7A4A" fill-opacity="0.7"/>
<path d="M823.396 149.861C823.743 148.744 825.301 148.703 825.705 149.801L827.518 154.728C828.237 156.686 829.371 158.466 830.842 159.945C832.312 161.423 834.086 162.567 836.04 163.296L841.203 165.217C842.266 165.612 842.266 167.123 841.203 167.519L836.04 169.439C834.086 170.168 832.312 171.312 830.841 172.791C829.37 174.27 828.237 176.05 827.518 178.008L825.608 183.199C825.215 184.267 823.712 184.267 823.319 183.199L821.408 178.008C820.689 176.05 819.556 174.27 818.085 172.791C816.614 171.312 814.84 170.168 812.886 169.439L807.797 167.546C806.726 167.147 806.737 165.62 807.814 165.238L813.144 163.347C815.262 162.592 817.176 161.354 818.732 159.731C820.289 158.108 821.446 156.144 822.111 153.996L823.396 149.861Z" fill="#FF855A" fill-opacity="0.8"/>
<path d="M1196.31 20.541C1196.52 19.839 1197.5 19.814 1197.76 20.504L1198.9 23.6C1199.35 24.8303 1200.06 25.9486 1200.99 26.8782C1201.91 27.8079 1203.02 28.5269 1204.25 28.986L1207.5 30.193C1208.17 30.442 1208.17 31.392 1207.5 31.64L1204.25 32.848C1203.02 33.3071 1201.91 34.0261 1200.99 34.9558C1200.06 35.8854 1199.35 37.0037 1198.9 38.234L1197.7 41.496C1197.45 42.168 1196.5 42.168 1196.26 41.496L1195.06 38.233C1194.61 37.0024 1193.89 35.8842 1192.97 34.9548C1192.04 34.0254 1190.93 33.3067 1189.7 32.848L1186.5 31.658C1185.83 31.407 1185.83 30.447 1186.51 30.207L1189.86 29.017C1191.19 28.5442 1192.4 27.7668 1193.38 26.7467C1194.35 25.7266 1195.08 24.4919 1195.5 23.141L1196.31 20.541Z" fill="#FF8A62" fill-opacity="0.8"/>
<path d="M767 129.005V129.124C767 129.9 767.153 130.669 767.45 131.387C767.747 132.104 768.182 132.756 768.731 133.305C769.28 133.854 769.932 134.289 770.649 134.586C771.367 134.883 772.136 135.036 772.912 135.036H773.545V223.552C773.545 230.946 779.539 236.941 786.934 236.941H787.204C794.598 236.941 800.593 230.947 800.593 223.552V135.036H801.226C802.002 135.036 802.771 134.883 803.488 134.586C804.206 134.289 804.857 133.854 805.406 133.305C805.955 132.756 806.391 132.104 806.688 131.387C806.985 130.669 807.137 129.9 807.137 129.124V129.005C807.137 128.229 806.985 127.46 806.688 126.743C806.391 126.025 805.955 125.373 805.406 124.824C804.857 124.275 804.206 123.84 803.488 123.543C802.771 123.246 802.002 123.093 801.226 123.093H772.912C772.136 123.093 771.367 123.246 770.649 123.543C769.932 123.84 769.28 124.275 768.731 124.824C768.182 125.373 767.747 126.025 767.45 126.742C767.153 127.46 767 128.229 767 129.005Z" fill="#FF713E"/>
<path d="M795.111 117.233C795.368 117.191 795.615 117.099 795.836 116.962C796.058 116.826 796.25 116.646 796.402 116.435C796.555 116.224 796.664 115.985 796.724 115.731C796.784 115.478 796.793 115.215 796.751 114.958C796.709 114.701 796.618 114.455 796.481 114.233C796.344 114.012 796.165 113.819 795.953 113.667C795.742 113.515 795.503 113.405 795.249 113.346C794.996 113.286 794.733 113.276 794.476 113.318C793.957 113.402 793.493 113.689 793.185 114.116C792.877 114.542 792.752 115.074 792.836 115.593C792.92 116.112 793.207 116.577 793.634 116.884C794.061 117.192 794.592 117.317 795.111 117.233Z" fill="#FFC3AE"/>
<path d="M795.543 153.681C796.345 153.681 797.115 153.362 797.682 152.795C798.249 152.228 798.568 151.458 798.568 150.656C798.568 149.854 798.249 149.084 797.682 148.517C797.115 147.95 796.345 147.631 795.543 147.631C794.741 147.631 793.971 147.95 793.404 148.517C792.837 149.084 792.518 149.854 792.518 150.656C792.518 151.458 792.837 152.228 793.404 152.795C793.971 153.362 794.741 153.681 795.543 153.681Z" fill="#FFEDE6"/>
<path d="M793.303 177.89H780.152V223.92C780.173 225.65 780.875 227.302 782.106 228.517C783.337 229.733 784.997 230.415 786.727 230.415C788.457 230.415 790.118 229.733 791.349 228.517C792.579 227.302 793.282 225.65 793.303 223.92V177.89Z" fill="#FFF6F2"/>
<path d="M780.772 94.684C780.943 95.6446 781.303 96.5621 781.829 97.3839C782.355 98.2058 783.037 98.916 783.838 99.474C784.639 100.032 785.541 100.427 786.494 100.636C787.447 100.845 788.432 100.865 789.393 100.693C790.354 100.522 791.271 100.162 792.093 99.6364C792.915 99.1104 793.625 98.4276 794.183 97.627C794.741 96.8265 795.136 95.9239 795.345 94.9708C795.554 94.0176 795.573 93.0326 795.402 92.072C795.056 90.132 793.953 88.409 792.336 87.2821C790.719 86.1552 788.721 85.7167 786.781 86.063C784.841 86.4094 783.118 87.5123 781.991 89.129C780.864 90.7458 780.426 92.744 780.772 94.684Z" fill="#FF6E3B" stroke="#FF6E3B" stroke-width="0.094"/>
<path d="M753.661 69.212C755.018 76.813 762.28 81.876 769.882 80.52C777.483 79.164 782.546 71.902 781.19 64.3C779.834 56.698 772.572 51.635 764.97 52.991C757.368 54.348 752.305 61.611 753.661 69.212Z" fill="#FF6E3B" stroke="#FF6E3B" stroke-width="0.177"/>
<path d="M765.197 62.77L786.315 91.372" stroke="#FF6E3B" stroke-width="3.726" stroke-linecap="round"/>
<path d="M736 144.5C736 127.655 722.345 114 705.5 114C688.655 114 675 127.655 675 144.5V175H705.5C722.345 175 736 161.345 736 144.5Z" fill="#E85A27"/>
<path d="M700.741 152.061V151.538C700.751 149.744 700.91 148.313 701.217 147.246C701.535 146.18 701.997 145.318 702.602 144.662C703.247 143.973 703.982 143.373 704.786 142.878C705.386 142.494 705.957 142.068 706.494 141.601C706.975 141.186 707.381 140.691 707.694 140.139C707.995 139.582 708.148 138.957 708.14 138.324C708.14 137.617 707.971 136.996 707.632 136.463C707.299 135.934 706.825 135.508 706.263 135.232C705.681 134.94 705.037 134.793 704.386 134.801C703.729 134.799 703.081 134.952 702.494 135.248C701.898 135.536 701.392 135.983 701.033 136.54C700.653 137.104 700.448 137.806 700.418 138.647H694.141C694.192 136.596 694.685 134.904 695.618 133.571C696.551 132.227 697.787 131.227 699.325 130.571C700.864 129.904 702.561 129.571 704.417 129.571C706.458 129.571 708.263 129.909 709.832 130.586C711.401 131.253 712.632 132.222 713.524 133.494C714.416 134.766 714.862 136.299 714.862 138.093C714.862 139.293 714.662 140.36 714.263 141.293C713.877 142.211 713.318 143.047 712.616 143.754C711.864 144.497 711.022 145.143 710.109 145.677C709.299 146.159 708.632 146.662 708.109 147.185C707.601 147.702 707.207 148.32 706.955 149C706.709 149.687 706.581 150.533 706.571 151.538V152.061H700.741ZM703.786 161.907C703.298 161.915 702.813 161.823 702.361 161.638C701.909 161.453 701.499 161.178 701.156 160.83C700.438 160.102 700.084 159.23 700.094 158.215C700.084 157.21 700.438 156.348 701.156 155.63C701.499 155.282 701.909 155.008 702.361 154.823C702.813 154.638 703.298 154.546 703.786 154.554C704.761 154.554 705.617 154.913 706.355 155.63C707.094 156.348 707.468 157.21 707.478 158.215C707.474 158.873 707.288 159.517 706.94 160.076C706.602 160.63 706.156 161.076 705.602 161.415C705.053 161.742 704.425 161.912 703.786 161.907Z" fill="#FFB69C"/>
<g opacity="0.8">
<path d="M951.092 164.235C951.092 163.907 951.027 163.582 950.901 163.279C950.775 162.976 950.591 162.701 950.359 162.469C950.127 162.237 949.851 162.054 949.548 161.928C949.245 161.803 948.92 161.739 948.592 161.739H923.088C921.708 161.739 920.588 162.857 920.588 164.235C920.589 164.897 920.853 165.532 921.321 166C921.79 166.468 922.426 166.731 923.088 166.73H948.592C949.972 166.73 951.092 165.613 951.092 164.235ZM907.907 202.024C907.907 202.352 907.972 202.677 908.098 202.98C908.224 203.283 908.408 203.558 908.64 203.789C908.872 204.021 909.148 204.205 909.451 204.33C909.754 204.455 910.079 204.519 910.407 204.519H935.911C937.292 204.519 938.411 203.402 938.411 202.024C938.411 201.696 938.346 201.371 938.22 201.068C938.094 200.765 937.91 200.49 937.678 200.258C937.446 200.026 937.17 199.843 936.867 199.717C936.564 199.592 936.239 199.528 935.911 199.528H910.407C909.027 199.528 907.907 200.646 907.907 202.024Z" fill="#FFBEA7"/>
<path d="M927.626 178.122C927.348 178.224 920.404 180.826 913.486 186.615C904.009 194.546 899 204.683 899 215.929L909.716 215.93C909.716 207.928 913.222 200.89 920.136 195.01C925.643 190.327 931.317 188.163 931.374 188.142C931.652 188.039 938.596 185.438 945.514 179.648C954.991 171.716 960 161.579 960 150.333C960 139.086 954.991 128.95 945.514 121.018C938.596 115.229 931.652 112.627 931.36 112.519L931.357 112.518C931.209 112.461 925.59 110.294 920.136 105.656C913.222 99.776 909.717 92.737 909.717 84.736C909.716 84.033 909.577 83.3369 909.307 82.6876C909.038 82.0384 908.643 81.4486 908.145 80.952C907.648 80.4553 907.057 80.0616 906.407 79.7933C905.757 79.5249 905.061 79.3872 904.358 79.388C903.655 79.3873 902.959 79.5252 902.309 79.7936C901.659 80.062 901.069 80.4557 900.571 80.9523C900.074 81.4489 899.679 82.0387 899.409 82.6879C899.14 83.3371 899.001 84.033 899 84.736C899 95.982 904.009 106.119 913.487 114.051C920.405 119.84 927.349 122.442 927.641 122.55L927.644 122.551C927.792 122.608 933.411 124.775 938.864 129.413C945.778 135.293 949.284 142.332 949.284 150.333C949.284 158.335 945.778 165.373 938.864 171.253C933.357 175.936 927.683 178.101 927.626 178.122Z" fill="#FF855A"/>
<path d="M907.907 136.426C907.907 136.754 907.972 137.079 908.098 137.382C908.224 137.685 908.408 137.96 908.64 138.192C908.872 138.424 909.148 138.607 909.451 138.733C909.754 138.858 910.079 138.922 910.407 138.922H935.911C937.292 138.922 938.411 137.804 938.411 136.426C938.411 136.098 938.346 135.773 938.22 135.47C938.094 135.167 937.91 134.892 937.678 134.661C937.446 134.429 937.17 134.245 936.867 134.12C936.564 133.995 936.239 133.931 935.911 133.931H910.407C909.027 133.931 907.907 135.048 907.907 136.426ZM944.751 150.33C944.751 150.002 944.686 149.677 944.56 149.374C944.434 149.071 944.25 148.796 944.018 148.565C943.786 148.333 943.51 148.149 943.207 148.024C942.904 147.899 942.579 147.835 942.251 147.835H916.747C916.419 147.835 916.094 147.899 915.791 148.024C915.488 148.149 915.212 148.333 914.98 148.565C914.748 148.796 914.564 149.071 914.438 149.374C914.312 149.677 914.247 150.002 914.247 150.33C914.247 150.658 914.312 150.983 914.438 151.286C914.564 151.589 914.748 151.864 914.98 152.096C915.212 152.328 915.488 152.511 915.791 152.637C916.094 152.762 916.419 152.826 916.747 152.826H942.25C942.913 152.827 943.548 152.564 944.017 152.096C944.486 151.628 944.75 150.993 944.751 150.33Z" fill="#FFBEA7"/>
<path d="M938.864 195.007C945.777 200.887 949.283 207.925 949.283 215.927H959.999C959.999 204.68 954.99 194.544 945.513 186.612C938.595 180.823 931.651 178.221 931.359 178.113C931.317 178.098 925.642 175.933 920.136 171.25C913.221 165.37 909.716 158.332 909.716 150.33C909.716 142.328 913.222 135.289 920.136 129.41C925.643 124.727 931.317 122.562 931.374 122.541C931.652 122.439 938.596 119.837 945.514 114.048C954.991 106.116 960 95.978 960 84.733C959.999 84.03 959.86 83.3341 959.591 82.6849C959.321 82.0357 958.926 81.4459 958.429 80.9493C957.931 80.4527 957.341 80.059 956.691 79.7906C956.041 79.5222 955.345 79.3844 954.642 79.385C953.939 79.3844 953.243 79.5222 952.593 79.7906C951.943 80.059 951.353 80.4527 950.855 80.9493C950.358 81.4459 949.963 82.0357 949.693 82.6849C949.424 83.3341 949.285 84.03 949.284 84.733C949.284 92.735 945.778 99.773 938.864 105.653C933.357 110.336 927.683 112.501 927.626 112.522C927.348 112.624 920.404 115.226 913.486 121.015C904.009 128.947 899 139.084 899 150.33C899 161.576 904.009 171.713 913.486 179.645C920.404 185.435 927.349 188.036 927.64 188.144C927.682 188.16 933.357 190.324 938.864 195.007Z" fill="#FF855A"/>
<path d="M951.092 98.28C951.091 97.6177 950.827 96.9828 950.358 96.5149C949.89 96.047 949.254 95.7845 948.592 95.785H923.088C921.708 95.785 920.588 96.903 920.588 98.281C920.589 98.9434 920.852 99.5783 921.321 100.046C921.79 100.514 922.426 100.777 923.088 100.776H948.592C949.972 100.776 951.092 99.658 951.092 98.28Z" fill="#FFBEA7"/>
</g>
<path d="M1012.99 118.153C1020.65 111.88 1034.04 107.633 1039.77 106.295L1076.13 104.573L1094.21 115.957L1118.34 124.351C1121.45 125.432 1124.21 127.327 1126.33 129.84C1128.46 132.352 1129.87 135.389 1130.42 138.633L1151.07 260.528H959.882L976.198 144.273C977.4 135.706 983.244 128.737 991.614 126.546C999.632 124.447 1008.34 121.953 1012.99 118.153Z" fill="#F6F6F6"/>
<path d="M1053.85 137.761C1053.85 137.792 1055.34 137.687 1055.46 137.792L1077.94 206.079C1078.16 206.75 1078.22 207.465 1078.11 208.162L1073.32 237.976C1073.15 239.013 1072.63 239.958 1071.83 240.639C1071.03 241.321 1070.01 241.695 1068.96 241.695H1034.19L1030.75 209.935C1030.69 209.394 1030.73 208.846 1030.87 208.32L1049.69 137.761H1053.85Z" fill="#F15A24"/>
<path d="M1051.9 145.085C1047.43 144.891 1043.39 135.076 1042.2 130.902C1042 130.166 1042.35 129.402 1043.06 129.12C1048.46 126.975 1058.04 128.244 1061.99 129.207C1062.78 129.398 1063.22 130.135 1062.99 130.91C1061.81 134.916 1057.33 145.321 1051.9 145.085Z" fill="#D1451C"/>
<path d="M1033.24 143.45C1024.36 120.127 1024.79 108.417 1033.31 105.204L1058.5 96.295C1060.27 95.6694 1062.19 95.5935 1064 96.0773C1065.82 96.561 1067.45 97.5819 1068.67 99.006L1075.65 107.138C1082.28 116.688 1076.72 133.996 1068.46 144.362C1067.79 145.201 1066.54 145.199 1065.82 144.398L1052.2 129.102L1036.11 144.111C1035.19 144.972 1033.68 144.63 1033.24 143.45Z" fill="#C4DDE5"/>
<path d="M1086.15 121.313C1085.25 115.974 1074.97 103.43 1071.76 100.224C1089.97 105.406 1133.46 123.658 1140.44 134.106C1153.79 150.494 1172.92 222.285 1181.13 260.083H1089.71C1088.9 247.848 1087.04 126.652 1086.15 121.313ZM1024.37 120.139C1025.3 111.221 1034.17 104.705 1037.47 101.506C1018.7 106.677 975.387 123.213 968.185 133.638C953.896 154.323 931.191 224.766 927 270.865L1021.16 260.593C1022 248.385 1023.82 125.513 1024.37 120.139Z" fill="#2F2D27"/>
<path d="M1100.49 129.012C1093.55 106.963 1078.96 101.765 1074.45 99.799L1070.06 102.772C1074.76 106.841 1082.79 112.023 1081 126.423L1061.92 259.566C1061.87 259.908 1061.89 260.256 1061.99 260.587C1062.09 260.919 1062.25 261.225 1062.48 261.487C1062.71 261.748 1062.99 261.957 1063.3 262.101C1063.61 262.244 1063.95 262.318 1064.3 262.318H1071.36C1072.31 262.318 1073.17 261.76 1073.56 260.893L1113.17 172.442C1113.28 172.19 1113.34 171.917 1113.33 171.641C1113.32 171.366 1113.24 171.097 1113.12 170.853C1112.99 170.61 1112.8 170.4 1112.58 170.237C1112.36 170.075 1112.1 169.966 1111.83 169.918L1090.49 166.125L1107.13 158.851C1108.76 158.139 1109.5 156.241 1108.83 154.593C1105.31 145.887 1103.04 137.133 1100.49 129.012ZM1005.25 129.011C1012.19 106.962 1029.99 101.734 1034.49 99.768L1038.74 103.322C1034.04 107.39 1022.95 112.022 1024.74 126.422L1043.82 259.564C1043.87 259.906 1043.85 260.254 1043.75 260.586C1043.65 260.917 1043.49 261.224 1043.26 261.485C1043.03 261.746 1042.75 261.956 1042.44 262.099C1042.13 262.243 1041.79 262.317 1041.44 262.317H1033.03C1032.08 262.317 1031.22 261.759 1030.83 260.892L991.233 172.461C991.12 172.208 991.066 171.933 991.076 171.657C991.086 171.38 991.159 171.11 991.29 170.866C991.42 170.622 991.605 170.411 991.83 170.249C992.054 170.088 992.313 169.98 992.586 169.934L1015.25 166.124L998.611 158.85C996.982 158.138 996.245 156.24 996.91 154.591C1000.43 145.885 1002.69 137.132 1005.25 129.011Z" fill="#2F2D27"/>
<path d="M1017.81 111.339C1010.12 120.898 1000.74 137.298 995.314 152.491L1010.01 161.012C1010.36 161.215 1010.46 161.674 1010.22 161.999C1006.3 167.274 1000.22 172.027 998.149 175.689L1031.13 227.566" stroke="url(#paint1_linear_57_77)" stroke-width="2.584" stroke-linecap="round"/>
<path d="M1086.63 107.763C1094.32 117.321 1107.19 137.256 1112.61 152.45L1092.4 154.604C1096.29 160.122 1105.93 170.097 1108.08 173.9L1076.8 227.525" stroke="url(#paint2_linear_57_77)" stroke-width="2.584" stroke-linecap="round"/>
<path d="M1037.34 103.457C1021.98 110.307 1014.94 130.764 1017.32 174.731" stroke="#FFFAF3" stroke-width="2.346"/>
<path d="M1014.32 179.452C1020.43 180.716 1026.49 177.15 1027.86 171.489C1029.22 165.828 1025.37 160.214 1019.26 158.951C1013.15 157.687 1007.09 161.252 1005.73 166.914C1004.37 172.575 1008.22 178.189 1014.32 179.452Z" fill="#615E57"/>
<path d="M1016.11 173.621C1018.62 174.139 1021.11 172.677 1021.67 170.354C1022.22 168.031 1020.65 165.728 1018.14 165.21C1015.63 164.691 1013.15 166.154 1012.59 168.477C1012.03 170.799 1013.61 173.103 1016.11 173.621Z" fill="#222222"/>
<path d="M1062.76 207.984L1070.73 207.256C1077.68 206.622 1083.68 202.167 1085.99 195.929L1094.68 172.459C1097.29 165.419 1094.48 157.759 1087.89 153.921C1080.92 149.864 1071.71 151.213 1066.08 157.113L1048.85 175.19C1044.47 179.78 1043.09 186.197 1045.25 191.859L1048.17 199.49" stroke="#FFFAF3" stroke-width="2.292"/>
<path d="M1050.66 198.739L1049.86 197.715C1049.22 196.899 1048.11 196.584 1047.09 196.93C1045.85 197.35 1045.1 198.615 1045.37 199.852L1045.64 201.129C1046.01 202.835 1047.9 203.725 1049.54 202.966C1051.2 202.196 1051.75 200.128 1050.66 198.739ZM1061.56 205.72L1063.01 205.999C1064.14 206.218 1064.99 207.114 1065.07 208.186C1065.17 209.348 1064.34 210.39 1063.12 210.65L1061.69 210.957C1059.83 211.355 1058.05 209.982 1058.13 208.204C1058.2 206.562 1059.83 205.384 1061.56 205.72Z" fill="#121414"/>
<path d="M981.375 196.639L977.793 178.307L967.495 260.082H981.375V196.639Z" fill="#1B1B18" stroke="#4B4A48" stroke-width="0.08" stroke-linecap="round" stroke-linejoin="round"/>
<path d="M1122.41 195.398L1126 176.965L1136.29 259.187H1122.41V195.398Z" fill="#171612" stroke="#4B4A48" stroke-width="0.08" stroke-linecap="round" stroke-linejoin="round"/>
<path d="M1030.81 109.863C1032.73 98.94 1033.27 94.123 1032.64 90.602L1072.33 92.435L1074.71 110.323C1074.9 111.785 1074.51 113.284 1073.57 114.418C1056.68 134.723 1038.9 123.91 1031.89 114.89C1030.79 113.473 1030.5 111.629 1030.81 109.863Z" fill="#EF8A3F"/>
<path d="M1085.01 129.857C1084.02 109.325 1077.44 106.75 1074.31 103.501C1075.66 102.608 1074.38 100.933 1075.28 100.263C1077.9 102.337 1087.38 109.016 1088.42 127.424C1089.51 134.89 1088.31 142.932 1087.44 152.472H1083.25C1082.74 147.426 1085.84 143.158 1085.01 129.857Z" fill="#989898"/>
<path d="M1064.15 157.677L1066.98 155.325C1072.94 150.357 1081.62 149.677 1088.17 153.662C1094.98 157.804 1097.72 165.898 1094.77 173.149L1093.36 176.62" stroke="#B3ADA2" stroke-width="6.428" stroke-linecap="round"/>
<path d="M1123.69 173.308C1123.69 154.365 1132.64 136.885 1136.34 131.791C1140.45 133.84 1144.33 142.05 1144.55 143.058C1136.34 150.581 1124.75 164.968 1123.69 173.308Z" fill="#171612"/>
<path d="M1085.37 24.762L1086.2 56.98C1086.2 56.98 1090.17 78.065 1079.87 98.334C1079.87 98.334 1078.51 101.307 1068.84 106.982C1068.84 106.982 1063.55 113.34 1052.26 113.3C1040.86 113.885 1035.68 106.982 1035.68 106.982C1026 101.307 1024.65 98.334 1024.65 98.334C1020.43 90.03 1018.61 81.586 1017.92 74.515C1014.71 65.692 1015.98 61.274 1015.98 61.274L1019.14 24.762H1085.39H1085.37Z" fill="url(#paint3_linear_57_77)"/>
<path d="M1063.75 102.953C1063.91 97.586 1058.86 93.085 1052.49 92.888C1046.11 92.692 1040.81 96.894 1040.65 102.257C1040.49 107.623 1045.53 112.129 1051.91 112.321C1058.28 112.513 1063.58 108.315 1063.74 102.953H1063.75Z" fill="url(#paint4_linear_57_77)"/>
<path d="M1059.56 74.513C1059.5 74.5153 1059.45 74.5291 1059.39 74.5535C1059.34 74.5779 1059.29 74.6125 1059.25 74.6553C1059.22 74.6981 1059.18 74.7482 1059.17 74.8027C1059.15 74.8573 1059.14 74.9151 1059.14 74.973C1059.16 75.65 1058.97 76.178 1058.58 76.483C1058.28 76.723 1057.89 76.794 1057.5 76.683L1057.44 76.67C1056.74 76.542 1054.89 76.202 1053.67 77.443C1053.3 77.823 1052.48 78.055 1051.48 78.059C1050.41 78.079 1049.52 77.843 1049.13 77.443C1047.92 76.198 1046.07 76.543 1045.37 76.67L1045.3 76.682C1044.91 76.794 1044.51 76.722 1044.21 76.482C1043.83 76.182 1043.64 75.65 1043.66 74.974C1043.66 74.9154 1043.65 74.857 1043.63 74.8021C1043.61 74.7471 1043.58 74.6968 1043.54 74.654C1043.5 74.6112 1043.45 74.5768 1043.4 74.5527C1043.35 74.5287 1043.29 74.5155 1043.23 74.514C1043.17 74.5113 1043.12 74.5202 1043.06 74.5402C1043.01 74.5601 1042.96 74.5908 1042.92 74.6302C1042.87 74.6697 1042.84 74.7172 1042.82 74.7699C1042.79 74.8226 1042.78 74.8794 1042.78 74.937C1042.74 75.897 1043.06 76.69 1043.67 77.171C1044.19 77.583 1044.87 77.711 1045.53 77.527C1046.15 77.411 1047.62 77.147 1048.5 78.051C1049.22 78.783 1050.49 78.919 1051.24 78.927H1051.57C1052.33 78.915 1053.6 78.771 1054.31 78.051C1055.19 77.147 1056.66 77.411 1057.27 77.527C1057.94 77.715 1058.61 77.583 1059.14 77.171C1059.75 76.694 1060.06 75.901 1060.03 74.937C1060.02 74.697 1059.82 74.485 1059.57 74.513H1059.58H1059.56Z" fill="#B55B22"/>
<path d="M1064.8 87.12H1039.63C1039.36 87.12 1042.45 92.025 1046.69 92.374C1048.51 92.526 1052.21 92.262 1052.21 92.262C1052.21 92.262 1055.91 92.522 1057.73 92.374C1061.98 92.034 1065.07 87.12 1064.8 87.12Z" fill="#EB762E" fill-opacity="0.6"/>
<path d="M1070.17 58.43C1070.3 56.908 1068.7 55.54 1066.6 55.368C1064.51 55.2 1062.71 56.292 1062.59 57.813C1062.46 59.333 1064.05 60.703 1066.15 60.874C1068.25 61.046 1070.05 59.951 1070.17 58.43Z" fill="#121414"/>
<path d="M1068.39 57.105C1068.4 56.629 1067.95 56.233 1067.38 56.228C1066.82 56.228 1066.36 56.605 1066.36 57.085C1066.36 57.561 1066.8 57.953 1067.37 57.961C1067.93 57.961 1068.39 57.585 1068.39 57.105Z" fill="#E7E7E5"/>
<path d="M1029.68 50.64C1028.68 50.66 1026.34 51.629 1024.6 52.197C1023.4 52.585 1023.37 52.033 1024.39 51.281C1026.25 49.912 1028.46 47.847 1030.08 46.895C1030.66 46.546 1031.36 46.518 1032.02 46.639C1034.85 47.139 1039.91 47.927 1042.79 48.667C1043.98 48.976 1044.36 50.2 1043.65 51.209C1043.61 51.265 1043.58 51.313 1043.54 51.369C1042.77 52.437 1041.52 52.678 1040.24 52.377C1035.63 51.293 1031.48 50.6 1029.67 50.641L1029.68 50.64ZM1073.93 50.64C1072.12 50.605 1067.97 51.293 1063.35 52.377C1062.08 52.677 1060.82 52.437 1060.06 51.369C1060.02 51.313 1059.99 51.265 1059.95 51.209C1059.24 50.2 1059.62 48.976 1060.8 48.667C1063.68 47.927 1068.74 47.139 1071.57 46.639C1072.24 46.519 1072.93 46.546 1073.51 46.895C1075.13 47.847 1077.35 49.912 1079.21 51.281C1080.23 52.033 1080.2 52.585 1079 52.197C1077.25 51.625 1074.92 50.66 1073.92 50.641L1073.93 50.64Z" fill="#42403A"/>
<path d="M1038.2 60.927C1040.29 60.695 1041.85 59.274 1041.68 57.762C1041.5 56.249 1039.68 55.209 1037.59 55.441C1035.49 55.673 1033.94 57.093 1034.11 58.606C1034.28 60.119 1036.11 61.159 1038.2 60.923V60.927Z" fill="#121414"/>
<path d="M1040.1 56.7C1040.1 56.223 1039.65 55.827 1039.09 55.82C1038.53 55.82 1038.06 56.196 1038.06 56.676C1038.05 57.152 1038.51 57.548 1039.07 57.552C1039.63 57.552 1040.09 57.176 1040.1 56.696V56.7Z" fill="#E7E7E5"/>
<path d="M1056.72 81.708L1066.88 83.95C1067.43 84.07 1067.39 84.87 1066.83 84.962C1062.65 85.982 1054.29 85.602 1054.29 85.602C1052.68 85.522 1052.7 83.954 1052.7 83.954C1052.54 81.228 1055.66 81.468 1056.72 81.704V81.708ZM1051.83 83.965C1051.83 83.965 1051.84 85.533 1050.24 85.613C1050.24 85.613 1041.88 85.99 1037.7 84.973C1037.14 84.877 1037.1 84.081 1037.65 83.961L1047.81 81.72C1048.86 81.487 1051.99 81.247 1051.83 83.969V83.965Z" fill="#42403A"/>
<path d="M1054.21 96.251H1050.22C1050.1 96.2507 1049.99 96.2043 1049.91 96.1218C1049.83 96.0393 1049.78 95.9276 1049.78 95.811C1049.78 95.567 1049.97 95.371 1050.22 95.371H1054.21C1054.45 95.371 1054.65 95.567 1054.65 95.811C1054.65 96.055 1054.46 96.251 1054.21 96.251Z" fill="#B55B22"/>
<path d="M1018.16 71.554C1017.43 70.8756 1016.98 69.9463 1016.9 68.9511C1016.82 67.9559 1017.12 66.9679 1017.74 66.184L1017.9 65.972C1015.88 55.079 1012.17 56.536 1012.17 56.536C1009.73 57.328 1008.32 59.585 1009.08 64.859C1010.2 72.079 1013.98 80.782 1017.07 79.089C1017.76 78.713 1018.15 77.945 1018.15 77.161V71.551L1018.16 71.554Z" fill="#F19E5A"/>
<path d="M1015.23 67.18H1015.26C1015.5 67.169 1015.68 66.96 1015.67 66.717C1015.41 62.027 1013.78 59.573 1012.31 59.573H1012.3C1011.65 59.573 1010.91 60.097 1010.85 61.543C1010.84 61.786 1011.03 61.994 1011.27 61.998C1011.51 62.006 1011.73 61.822 1011.73 61.578C1011.77 60.898 1011.99 60.45 1012.31 60.45C1013.05 60.45 1014.55 62.294 1014.8 66.765C1014.81 67.005 1015 67.181 1015.24 67.181L1015.23 67.18Z" fill="#B55B22"/>
<path d="M1085.49 77.157C1085.49 77.941 1085.87 78.709 1086.57 79.085C1089.66 80.775 1093.44 72.075 1094.56 64.859C1095.33 59.589 1093.92 57.332 1091.47 56.536C1091.47 56.536 1087.77 55.079 1085.74 65.972L1085.91 66.184C1086.53 66.9689 1086.82 67.9563 1086.75 68.9508C1086.67 69.9452 1086.22 70.8742 1085.49 71.554V77.164V77.157Z" fill="#F19E5A"/>
<path d="M1088.41 67.166H1088.38C1088.32 67.1632 1088.27 67.1489 1088.21 67.124C1088.16 67.099 1088.12 67.0638 1088.08 67.0206C1088.04 66.9773 1088.01 66.9268 1087.99 66.8721C1087.97 66.8174 1087.97 66.7596 1087.97 66.702C1088.23 62.012 1089.86 59.559 1091.33 59.559H1091.34C1092 59.559 1092.72 60.083 1092.78 61.528C1092.78 61.5853 1092.78 61.643 1092.76 61.6975C1092.74 61.752 1092.71 61.8022 1092.67 61.8449C1092.64 61.8877 1092.59 61.9221 1092.54 61.946C1092.48 61.9699 1092.43 61.9829 1092.37 61.984C1092.31 61.9871 1092.25 61.9787 1092.2 61.9591C1092.14 61.9396 1092.09 61.9094 1092.05 61.8704C1092.01 61.8313 1091.97 61.7841 1091.95 61.7315C1091.93 61.6789 1091.91 61.622 1091.91 61.564C1091.88 60.884 1091.65 60.435 1091.34 60.435C1090.59 60.435 1089.09 62.28 1088.85 66.75C1088.84 66.8628 1088.8 66.969 1088.71 67.0466C1088.63 67.1241 1088.52 67.1669 1088.41 67.166Z" fill="#B55B22"/>
<path d="M1087.35 60.902L1092.42 43.382C1093.29 40.169 1094.26 35.871 1093.71 32.585C1092.54 25.578 1088.96 23.325 1088.86 23.325C1088.1 19.367 1085.86 16.65 1082.75 14.189L1080.88 12.677C1074.02 7.24202 1063.01 4.94102 1051.9 5.00102C1034.64 5.70502 1021.06 12.141 1018.86 22.689C1018.86 22.689 1006.28 27.255 1015.36 57.252C1017.04 62.326 1017.04 62.138 1017.25 62.598C1017.63 63.111 1018.21 63.323 1018.77 63.058C1019.03 62.91 1019.3 62.654 1019.41 62.31L1020.14 57.256C1020.41 56.436 1020.46 55.567 1020.32 54.715C1019.93 52.382 1019.56 47.544 1020.43 42.397C1021.03 38.807 1022.58 35.422 1025.03 32.733C1028.36 29.083 1032.05 27.899 1035.29 27.259C1039.62 26.567 1041.02 27.383 1044.22 28.539C1045.79 29.108 1048.62 29.904 1051.9 29.836C1055.17 29.904 1058 29.108 1059.58 28.539C1062.78 27.387 1064.18 26.567 1068.5 27.259C1076.28 28.507 1082.07 34.71 1083.37 42.394C1084.24 47.54 1083.87 52.378 1083.47 54.711C1083.33 55.5609 1083.39 56.4328 1083.66 57.252L1084.31 61.538L1084.43 62.326C1084.54 62.67 1084.76 62.914 1085.02 63.062C1085.66 63.431 1086.49 63.094 1086.77 62.406C1086.97 61.91 1087.26 61.174 1087.34 60.894" fill="#262626"/>
<g opacity="0.7">
<path d="M1093.46 31.282C1092.48 26.756 1090.34 24.019 1088.86 23.322C1087.5 30.565 1085.49 34.927 1081.81 37.308C1082.69 39.645 1082.91 39.953 1083.38 42.347C1084.25 47.493 1083.88 52.331 1083.48 54.668C1083.34 55.5179 1083.4 56.3898 1083.67 57.209L1084.31 61.499L1084.44 62.327C1084.55 62.672 1084.77 62.916 1085.02 63.064C1085.67 63.432 1086.52 63.1 1086.79 62.371C1086.99 61.875 1087.27 61.135 1087.35 60.855C1091.11 47.909 1093.89 40.045 1093.89 35.484L1093.81 33.514L1093.46 31.282Z" fill="url(#paint5_linear_57_77)"/>
</g>
<g opacity="0.7">
<path d="M1026.98 30.933C1024.11 30.317 1018.75 29.336 1018.86 22.689C1015.19 24.762 1006.73 31.805 1016.56 60.842C1016.64 61.122 1016.93 61.859 1017.13 62.355C1017.41 63.043 1018.18 63.387 1018.83 63.023C1019.09 62.875 1019.3 62.631 1019.42 62.287L1019.54 61.498L1020.19 57.208C1020.46 56.388 1020.52 55.52 1020.38 54.668C1019.98 52.334 1019.61 47.496 1020.48 42.346C1020.93 38.652 1023.8 32.99 1026.98 30.933Z" fill="url(#paint6_linear_57_77)"/>
</g>
<path d="M1040.59 27.247C1034.79 24.561 1035.18 19.859 1036.17 17.798C1044.58 4.29201 1067.41 7.06201 1077.68 10.508C1077.68 10.495 1077.13 10.231 1077.14 10.219C1074.76 8.93101 1072.65 8.14601 1069.95 7.28201C1061.99 4.82101 1050.81 4.07601 1040.87 6.32901C1031.34 8.37001 1022.62 12.66 1019.47 20.556C1018.44 22.929 1018.74 25.122 1019.97 27.098C1021.78 30.032 1025.33 30.816 1026.88 30.924C1029.11 29.031 1034.91 26.054 1040.58 27.234H1040.6V27.246L1040.59 27.247Z" fill="url(#paint7_linear_57_77)" fill-opacity="0.4"/>
<path opacity="0.85" d="M1029.39 29.34C1016.7 36.21 1020.37 54.747 1020.37 54.747L1030.97 45.711C1031.07 45.6237 1031.15 45.5125 1031.2 45.387C1031.25 45.2615 1031.27 45.1256 1031.26 44.991C1031.05 42.901 1030.12 33.821 1029.39 29.34Z" fill="url(#paint8_linear_57_77)"/>
<path d="M1045.77 88.045C1043.69 88.045 1041.27 87.761 1038.99 87.076C1038.94 87.0612 1038.89 87.0358 1038.84 87.0013C1038.8 86.9669 1038.77 86.9241 1038.74 86.8755C1038.71 86.827 1038.7 86.7737 1038.69 86.7188C1038.69 86.6639 1038.69 86.6085 1038.71 86.556C1038.78 86.332 1039.01 86.208 1039.23 86.276C1043 87.404 1047.29 87.396 1049.41 86.816C1049.85 86.696 1050.37 86.732 1050.91 86.92C1051.69 87.192 1053.07 87.244 1054.41 86.756C1054.74 86.636 1055.08 86.608 1055.4 86.68C1057.75 87.192 1060.11 87.516 1065.36 86.24C1065.59 86.184 1065.82 86.324 1065.87 86.548C1065.88 86.6017 1065.89 86.6577 1065.88 86.7126C1065.87 86.7675 1065.85 86.8201 1065.82 86.8675C1065.79 86.9149 1065.76 86.9559 1065.71 86.9883C1065.67 87.0207 1065.61 87.0437 1065.56 87.056C1060.14 88.376 1057.67 88.036 1055.22 87.501C1055.05 87.4662 1054.87 87.4811 1054.7 87.544C1053.36 88.037 1051.77 88.104 1050.64 87.717C1050.38 87.625 1049.99 87.537 1049.64 87.633C1048.66 87.901 1047.31 88.053 1045.78 88.053L1045.77 88.045Z" fill="#B55B22"/>
<path opacity="0.85" d="M1074.38 29.34C1087.21 35.919 1083.41 54.747 1083.41 54.747L1072.8 45.711C1072.7 45.6222 1072.62 45.5108 1072.57 45.3857C1072.52 45.2606 1072.5 45.1254 1072.51 44.991C1072.72 42.901 1073.65 33.821 1074.38 29.34Z" fill="url(#paint9_linear_57_77)"/>
<g opacity="0.4">
<path d="M1021.72 66.814L1020.82 57.406C1020.69 55.966 1021.82 54.716 1023.26 54.716H1041.68C1042.73 54.716 1043.76 54.936 1044.71 55.366L1046.26 56.057C1047.34 56.5417 1048.21 57.3888 1048.73 58.451C1049.25 59.5132 1049.38 60.7236 1049.1 61.872L1047.9 66.742C1047.53 68.2625 1046.69 69.6278 1045.5 70.644L1045.25 70.852C1043.9 72.0049 1042.19 72.6381 1040.42 72.637H1028.36C1027.32 72.637 1026.3 72.324 1025.44 71.744L1025.25 71.616C1024.27 70.9588 1023.41 70.1527 1022.68 69.227C1022.14 68.5292 1021.8 67.6907 1021.72 66.81V66.814Z" fill="#D9D9D9"/>
</g>
<g opacity="0.4">
<path d="M1082.14 66.786L1082.74 57.21C1082.76 56.8912 1082.72 56.5715 1082.61 56.2707C1082.5 55.9698 1082.33 55.6943 1082.11 55.4613C1081.9 55.2282 1081.63 55.0426 1081.34 54.9159C1081.05 54.7893 1080.73 54.7243 1080.41 54.725H1062.23C1061.18 54.725 1060.14 54.945 1059.19 55.373L1057.64 56.065C1056.56 56.5497 1055.69 57.3967 1055.17 58.459C1054.65 59.5212 1054.52 60.7316 1054.8 61.88L1056 66.75C1056.37 68.2689 1057.21 69.633 1058.4 70.652L1058.65 70.86C1060 72.0109 1061.71 72.6436 1063.48 72.644H1075.54C1076.58 72.644 1077.6 72.332 1078.47 71.752L1078.69 71.596C1079.64 70.956 1080.49 70.171 1081.19 69.271C1081.76 68.555 1082.08 67.691 1082.14 66.786Z" fill="#D9D9D9"/>
</g>
<path d="M1082.56 55.043C1082.29 54.7494 1081.96 54.5157 1081.59 54.3565C1081.22 54.1973 1080.82 54.1161 1080.42 54.118H1062.23C1061.09 54.118 1059.99 54.354 1058.94 54.818L1057.39 55.511C1057.22 55.587 1057.06 55.675 1056.9 55.767C1056.15 56.011 1055.37 56.139 1054.57 56.139H1049.22C1048.5 56.139 1047.79 56.031 1047.1 55.827C1046.91 55.715 1046.72 55.607 1046.51 55.511L1044.96 54.818C1043.93 54.3561 1042.81 54.1176 1041.68 54.118H1023.26C1022.4 54.118 1021.58 54.482 1021 55.118C1020.71 55.434 1020.5 55.8061 1020.36 56.2108C1020.23 56.6154 1020.18 57.0436 1020.22 57.468L1021.11 66.88C1021.21 67.876 1021.58 68.82 1022.2 69.613C1022.97 70.589 1023.88 71.438 1024.91 72.134L1025.1 72.258C1026.07 72.91 1027.2 73.254 1028.36 73.254H1040.42C1042.33 73.254 1044.19 72.57 1045.65 71.322L1045.89 71.114C1047.18 70.0196 1048.09 68.5423 1048.49 66.896L1049.69 62.026C1049.94 60.9968 1049.9 59.9165 1049.56 58.912C1050.28 58.4729 1051.1 58.2327 1051.95 58.2158C1052.79 58.1989 1053.62 58.406 1054.36 58.816C1054 59.8488 1053.95 60.9641 1054.21 62.026L1055.4 66.896C1055.8 68.5394 1056.71 70.0147 1058 71.114L1058.24 71.326C1059.7 72.5675 1061.55 73.2507 1063.47 73.254H1075.53C1076.69 73.2542 1077.83 72.9074 1078.79 72.258L1079.02 72.106C1080.02 71.43 1080.91 70.606 1081.66 69.653C1082.3 68.8432 1082.67 67.8598 1082.74 66.832L1082.75 66.668L1083.35 57.248C1083.37 56.8468 1083.32 56.4449 1083.18 56.0665C1083.04 55.6882 1082.83 55.3414 1082.56 55.047V55.043ZM1048.52 61.733L1047.32 66.608C1046.98 68.0066 1046.21 69.2617 1045.11 70.193L1044.87 70.401C1043.63 71.4589 1042.05 72.0406 1040.42 72.042H1028.37C1027.44 72.042 1026.55 71.77 1025.78 71.25L1025.59 71.126C1024.66 70.5071 1023.84 69.7437 1023.16 68.865C1022.68 68.265 1022.4 67.548 1022.32 66.792L1021.42 57.352C1021.37 56.827 1021.54 56.319 1021.9 55.931C1022.25 55.543 1022.74 55.327 1023.26 55.327H1041.67C1042.64 55.327 1043.58 55.527 1044.46 55.923L1046.01 56.615C1046.96 57.0388 1047.73 57.7839 1048.19 58.7196C1048.65 59.6554 1048.76 60.7222 1048.51 61.733H1048.52ZM1081.53 66.743V66.843C1081.46 67.596 1081.18 68.304 1080.72 68.901C1080.04 69.753 1079.25 70.493 1078.35 71.098L1078.12 71.25C1077.35 71.766 1076.46 72.042 1075.54 72.042H1063.48C1061.85 72.042 1060.28 71.458 1059.04 70.402L1058.79 70.189C1057.7 69.2548 1056.92 68.0009 1056.58 66.604L1055.39 61.734C1055.14 60.7242 1055.25 59.6582 1055.71 58.7224C1056.16 57.7867 1056.93 57.0407 1057.88 56.615L1059.44 55.923C1060.32 55.528 1061.27 55.3248 1062.23 55.327H1080.42C1080.9 55.327 1081.34 55.519 1081.67 55.871C1082 56.223 1082.17 56.683 1082.14 57.167L1081.53 66.744V66.743Z" fill="black"/>
<path opacity="0.8" d="M1021.9 29.163C1021.9 29.163 1019.04 27.963 1018.85 22.8C1020.03 16.03 1027.18 9.16601 1040.38 6.44501C1040.38 6.44501 1018.04 14.209 1021.91 29.163H1021.9Z" fill="url(#paint10_linear_57_77)" fill-opacity="0.4"/>
<path d="M807.041 28.912V59.898C807.037 69.6956 810.004 79.2642 815.55 87.3406C821.097 95.417 828.962 101.622 838.108 105.135L842.343 106.764C845.158 107.863 848.282 107.863 851.097 106.764L855.332 105.135C874.062 97.928 886.399 79.931 886.399 59.898V28.912C886.399 26.509 885.015 24.352 882.857 23.374C871.457 18.4019 859.137 15.8905 846.7 16.004C834.263 15.8863 821.941 18.3978 810.542 23.374C808.384 24.351 807 26.55 807 28.912H807.041Z" fill="#FF855A"/>
<path d="M826.056 53.082C826.056 52.2864 826.372 51.5233 826.935 50.9607C827.497 50.3981 828.261 50.082 829.056 50.082H865.655C866.451 50.082 867.214 50.3981 867.776 50.9607C868.339 51.5233 868.655 52.2864 868.655 53.082V59.862C868.655 60.6577 868.339 61.4207 867.776 61.9834C867.214 62.546 866.451 62.862 865.655 62.862H829.056C828.261 62.862 827.497 62.546 826.935 61.9834C826.372 61.4207 826.056 60.6577 826.056 59.862V53.082Z" fill="#FFF6F2"/>
<path d="M850.744 35.17C851.54 35.17 852.303 35.4861 852.865 36.0487C853.428 36.6113 853.744 37.3743 853.744 38.17V74.77C853.744 75.5656 853.428 76.3287 852.865 76.8913C852.303 77.4539 851.54 77.77 850.744 77.77H843.964C843.168 77.77 842.405 77.4539 841.843 76.8913C841.28 76.3287 840.964 75.5656 840.964 74.77V38.17C840.964 37.3743 841.28 36.6113 841.843 36.0487C842.405 35.4861 843.168 35.17 843.964 35.17H850.744Z" fill="#FFF6F2"/>
<path d="M1183.04 127.204V156.492C1183.04 170.809 1189.31 190.36 1216.41 200.79C1219.07 201.829 1222.02 201.829 1224.68 200.79C1251.78 190.36 1258.05 170.694 1258.05 156.492V127.204C1258.05 124.933 1256.74 122.894 1254.7 121.97C1243.92 117.271 1232.28 114.897 1220.52 115.004C1208.77 114.893 1197.12 117.267 1186.35 121.97C1184.31 122.894 1183 124.972 1183 127.204H1183.04Z" fill="#FF7F51"/>
<path d="M1223.93 170.874C1223.06 171.813 1221.84 172.313 1220.56 172.313C1219.93 172.313 1219.3 172.185 1218.72 171.938C1218.14 171.691 1217.62 171.329 1217.18 170.874L1204.57 157.735C1201.69 154.857 1200.97 150.446 1202.79 146.817C1204.16 144.095 1206.73 142.187 1209.73 141.718C1212.73 141.217 1215.8 142.218 1217.93 144.377L1220.52 146.973L1223.12 144.377C1224.18 143.317 1225.48 142.524 1226.9 142.062C1228.33 141.6 1229.84 141.482 1231.32 141.718C1234.32 142.218 1236.92 144.095 1238.26 146.817C1240.08 150.446 1239.36 154.857 1236.48 157.735L1223.87 170.874H1223.93Z" fill="#FFF6F2"/>
<path d="M1223.93 30.657C1223.93 29.751 1224.6 29 1225.4 29H1257.85C1258.65 29 1259.32 29.751 1259.32 30.657V40.598C1259.32 41.504 1258.65 42.255 1257.85 42.255H1225.4C1224.6 42.255 1223.93 41.505 1223.93 40.598V30.657ZM1257.1 49.987C1254.8 48.264 1253.42 45.37 1253.42 42.255H1229.83C1229.83 45.37 1228.45 48.264 1226.15 49.987L1224.93 50.915C1222.47 52.771 1221 55.864 1221 59.178V79.586C1221 83.254 1223.63 86.214 1226.9 86.214H1256.39C1259.65 86.214 1262.29 83.254 1262.29 79.586V59.178C1262.29 55.864 1260.81 52.748 1258.36 50.915L1257.12 49.987H1257.1Z" fill="#FF8053"/>
<path d="M1245.6 63.794C1245.74 65.164 1245.33 66.512 1244.46 67.484C1243.6 68.456 1242.4 68.92 1241.18 68.765C1239.96 68.92 1238.76 68.455 1237.9 67.484C1237.03 66.512 1236.62 65.164 1236.76 63.794C1236.76 60.127 1241.18 55.51 1241.18 55.51C1241.18 55.51 1245.6 60.127 1245.6 63.794Z" fill="#FFAE91"/>
<path d="M1150.53 40.063C1132.6 40.063 1118.06 54.6 1118.06 72.532C1118.06 78.293 1119.57 83.705 1122.2 88.397C1123.36 90.462 1122.97 93.052 1121.27 94.705L1113.47 102.318C1112.47 103.297 1113.16 105 1114.57 105H1150.53C1168.46 105 1183 90.463 1183 72.532C1183 54.6 1168.46 40.063 1150.53 40.063Z" fill="#FF7240"/>
<path d="M1154.45 61.1H1137.87C1136.11 61.1 1134.68 62.5273 1134.68 64.288C1134.68 66.0487 1136.11 67.476 1137.87 67.476H1154.45C1156.21 67.476 1157.64 66.0487 1157.64 64.288C1157.64 62.5273 1156.21 61.1 1154.45 61.1Z" fill="#C73F0E"/>
<path d="M1162.1 75.126H1137.87C1136.11 75.126 1134.68 76.5533 1134.68 78.314C1134.68 80.0747 1136.11 81.502 1137.87 81.502H1162.1C1163.86 81.502 1165.29 80.0747 1165.29 78.314C1165.29 76.5533 1163.86 75.126 1162.1 75.126Z" fill="#C73F0E"/>
<path d="M46.1661 63H39.9041L49.4441 35.364H56.9741L66.5011 63H60.2411L53.3181 41.679H53.1021L46.1661 63ZM45.7741 52.137H60.5641V56.698H45.7741V52.137ZM86.4841 48.183L81.2201 48.507C81.1314 48.0602 80.932 47.6427 80.6401 47.293C80.325 46.9105 79.9222 46.6096 79.4661 46.416C78.9891 46.191 78.4181 46.078 77.7521 46.078C76.8621 46.078 76.1111 46.267 75.4991 46.645C74.8871 47.014 74.5811 47.508 74.5811 48.129C74.5811 48.624 74.7791 49.042 75.1751 49.384C75.5711 49.726 76.2501 50.001 77.2131 50.207L80.9641 50.963C82.9791 51.377 84.4811 52.043 85.4711 52.96C86.4611 53.878 86.9551 55.083 86.9551 56.577C86.9551 57.935 86.5551 59.127 85.7551 60.153C84.9631 61.178 83.8751 61.979 82.4891 62.555C81.1121 63.121 79.5251 63.405 77.7251 63.405C74.9821 63.405 72.7951 62.834 71.1671 61.691C69.5471 60.539 68.5991 58.974 68.3201 56.995L73.9741 56.698C74.1441 57.535 74.559 58.173 75.215 58.614C75.872 59.046 76.7131 59.262 77.7391 59.262C78.7461 59.262 79.5561 59.069 80.1681 58.682C80.7881 58.286 81.1031 57.778 81.1121 57.157C81.1031 56.635 80.8831 56.207 80.4521 55.875C80.0191 55.533 79.3541 55.272 78.4541 55.092L74.8641 54.377C72.8401 53.972 71.3341 53.271 70.3441 52.272C69.3641 51.273 68.8731 50.001 68.8731 48.453C68.8731 47.122 69.2331 45.975 69.9531 45.013C70.6811 44.05 71.7031 43.307 73.0161 42.786C74.3381 42.264 75.8861 42.003 77.6581 42.003C80.2761 42.003 82.3361 42.556 83.8381 43.663C85.3501 44.769 86.2321 46.276 86.4841 48.183ZM95.784 57.035L95.798 50.14H96.6341L103.273 42.273H109.872L100.952 52.69H99.59L95.784 57.035ZM90.5751 63V35.364H96.3241V63H90.5751ZM103.53 63L97.4301 53.972L101.263 49.91L110.263 63H103.53ZM127.398 63.391C126.075 63.391 124.897 63.161 123.862 62.703C122.828 62.235 122.009 61.547 121.406 60.638C120.813 59.721 120.516 58.578 120.516 57.211C120.516 56.059 120.727 55.092 121.15 54.31C121.557 53.5445 122.151 52.8943 122.877 52.42C123.641 51.9279 124.479 51.5632 125.36 51.34C126.326 51.0922 127.309 50.921 128.302 50.828C129.276 50.7305 130.248 50.6138 131.217 50.478C131.954 50.36 132.49 50.189 132.823 49.964C133.155 49.74 133.322 49.407 133.322 48.966V48.885C133.322 48.03 133.052 47.369 132.512 46.901C131.981 46.433 131.226 46.2 130.245 46.2C129.211 46.2 128.387 46.429 127.776 46.888C127.164 47.338 126.759 47.904 126.561 48.588L121.244 48.156C121.514 46.896 122.045 45.808 122.837 44.891C123.628 43.964 124.65 43.253 125.9 42.758C127.16 42.255 128.617 42.003 130.272 42.003C131.424 42.003 132.526 42.138 133.578 42.408C134.64 42.678 135.58 43.096 136.399 43.663C137.219 44.2219 137.89 44.9722 138.355 45.849C138.832 46.73 139.07 47.787 139.07 49.019V63H133.619V60.126H133.457C133.123 60.7758 132.67 61.3572 132.121 61.84C131.563 62.325 130.893 62.708 130.11 62.986C129.328 63.256 128.423 63.391 127.398 63.391ZM129.044 59.424C129.89 59.424 130.637 59.258 131.284 58.924C131.904 58.6072 132.43 58.1326 132.809 57.548C133.178 56.972 133.362 56.32 133.362 55.592V53.392C133.182 53.509 132.935 53.617 132.62 53.716C132.314 53.806 131.968 53.891 131.581 53.972C131.194 54.044 130.807 54.112 130.421 54.175L129.368 54.323C128.693 54.423 128.104 54.58 127.6 54.795C127.097 55.011 126.705 55.304 126.426 55.673C126.147 56.033 126.008 56.483 126.008 57.022C126.008 57.805 126.291 58.402 126.858 58.817C127.434 59.222 128.163 59.424 129.044 59.424ZM149.279 51.017V63H143.53V42.273H149.009V45.93H149.252C149.69 44.7509 150.5 43.7466 151.559 43.069C152.639 42.359 153.948 42.003 155.486 42.003C156.926 42.003 158.181 42.318 159.251 42.947C160.322 43.577 161.154 44.477 161.748 45.647C162.341 46.807 162.638 48.192 162.638 49.803V63H156.89V50.828C156.899 49.56 156.575 48.57 155.918 47.859C155.261 47.139 154.357 46.779 153.206 46.779C152.432 46.779 151.748 46.946 151.155 47.279C150.57 47.612 150.111 48.098 149.778 48.736C149.454 49.366 149.288 50.126 149.279 51.017ZM169.976 70.773C169.247 70.773 168.563 70.714 167.925 70.597C167.295 70.489 166.773 70.35 166.359 70.179L167.655 65.888C168.33 66.095 168.937 66.208 169.477 66.225C170.025 66.243 170.498 66.117 170.893 65.847C171.298 65.577 171.627 65.119 171.879 64.471L172.216 63.594L164.781 42.273H170.826L175.117 57.494H175.333L179.665 42.273H185.751L177.695 65.24C177.308 66.356 176.781 67.327 176.116 68.155C175.456 68.9946 174.598 69.6576 173.619 70.085C172.612 70.543 171.397 70.773 169.976 70.773ZM199.717 42.273V46.591H187.235V42.273H199.717ZM190.069 37.307H195.817V56.63C195.817 57.16 195.898 57.574 196.06 57.871C196.222 58.159 196.447 58.361 196.735 58.478C197.032 58.595 197.374 58.654 197.761 58.654C198.031 58.654 198.3 58.631 198.57 58.586C198.84 58.532 199.047 58.492 199.191 58.465L200.095 62.743C199.807 62.833 199.402 62.936 198.881 63.053C198.359 63.179 197.725 63.255 196.978 63.283C195.593 63.336 194.378 63.152 193.335 62.729C192.3 62.306 191.495 61.649 190.919 60.759C190.343 59.869 190.06 58.744 190.069 57.385V37.305V37.307ZM209.656 51.017V63H203.907V35.364H209.494V45.93H209.737C210.205 44.706 210.96 43.748 212.004 43.055C213.047 42.354 214.356 42.003 215.931 42.003C217.37 42.003 218.625 42.318 219.696 42.947C220.775 43.568 221.612 44.463 222.206 45.633C222.808 46.793 223.105 48.183 223.096 49.803V63H217.348V50.828C217.357 49.551 217.033 48.557 216.376 47.846C215.728 47.136 214.82 46.78 213.65 46.78C212.868 46.78 212.175 46.946 211.572 47.28C210.973 47.6185 210.485 48.1245 210.169 48.736C209.836 49.366 209.665 50.126 209.656 51.017ZM227.62 63V42.273H233.369V63H227.62ZM230.508 39.6C229.653 39.6 228.92 39.318 228.308 38.75C227.706 38.175 227.404 37.487 227.404 36.686C227.404 35.894 227.706 35.216 228.308 34.648C228.899 34.081 229.69 33.7707 230.508 33.785C231.363 33.785 232.091 34.073 232.694 34.648C233.306 35.215 233.612 35.894 233.612 36.686C233.612 37.486 233.306 38.175 232.694 38.751C232.091 39.318 231.363 39.601 230.508 39.601V39.6ZM243.722 51.017V63H237.974V42.273H243.452V45.93H243.695C244.133 44.7507 244.943 43.7462 246.003 43.069C247.082 42.359 248.391 42.003 249.93 42.003C251.369 42.003 252.624 42.318 253.695 42.947C254.765 43.577 255.597 44.477 256.191 45.647C256.785 46.807 257.082 48.192 257.082 49.803V63H251.333V50.828C251.342 49.56 251.018 48.57 250.362 47.859C249.705 47.139 248.801 46.779 247.649 46.779C246.875 46.779 246.192 46.946 245.598 47.279C245.013 47.612 244.554 48.098 244.222 48.736C243.898 49.366 243.731 50.126 243.722 51.017ZM270.95 71.204C269.088 71.204 267.491 70.948 266.16 70.435C264.838 69.932 263.785 69.243 263.002 68.371C262.22 67.498 261.711 66.518 261.477 65.429L266.794 64.714C266.956 65.128 267.213 65.514 267.563 65.874C267.914 66.234 268.378 66.522 268.953 66.738C269.538 66.963 270.249 67.075 271.085 67.075C272.336 67.075 273.366 66.769 274.176 66.158C274.994 65.555 275.404 64.543 275.404 63.121V59.33H275.161C274.909 59.905 274.531 60.45 274.027 60.962C273.523 61.475 272.876 61.893 272.084 62.217C271.292 62.541 270.348 62.703 269.25 62.703C267.694 62.703 266.277 62.343 264.999 61.623C263.731 60.895 262.719 59.783 261.963 58.291C261.217 56.788 260.843 54.89 260.843 52.596C260.843 50.248 261.226 48.286 261.99 46.712C262.755 45.138 263.771 43.959 265.04 43.177C266.301 42.3989 267.756 41.992 269.237 42.003C270.397 42.003 271.369 42.201 272.151 42.597C272.934 42.983 273.564 43.469 274.041 44.054C274.526 44.63 274.9 45.196 275.161 45.754H275.377V42.273H281.085V63.203C281.085 64.966 280.653 66.441 279.789 67.629C278.926 68.816 277.729 69.707 276.2 70.3C274.679 70.903 272.93 71.204 270.95 71.204ZM271.072 58.384C271.999 58.384 272.781 58.156 273.42 57.697C274.068 57.229 274.562 56.563 274.904 55.7C275.255 54.827 275.431 53.783 275.431 52.569C275.431 51.354 275.26 50.302 274.918 49.411C274.576 48.511 274.081 47.814 273.433 47.32C272.786 46.825 271.999 46.577 271.072 46.577C270.127 46.577 269.331 46.834 268.683 47.347C268.036 47.85 267.545 48.552 267.213 49.452C266.88 50.352 266.713 51.39 266.713 52.569C266.713 53.765 266.88 54.8 267.213 55.673C267.554 56.536 268.045 57.206 268.683 57.683C269.331 58.151 270.127 58.384 271.072 58.384ZM300.365 63.391C299.042 63.391 297.864 63.161 296.829 62.703C295.795 62.235 294.976 61.547 294.373 60.638C293.779 59.721 293.483 58.578 293.483 57.211C293.483 56.059 293.694 55.092 294.117 54.31C294.524 53.5443 295.118 52.894 295.844 52.42C296.608 51.9278 297.446 51.563 298.327 51.34C299.293 51.0922 300.276 50.921 301.269 50.828C302.243 50.7305 303.215 50.6138 304.184 50.478C304.921 50.36 305.457 50.189 305.789 49.964C306.122 49.74 306.289 49.407 306.289 48.966V48.885C306.289 48.03 306.019 47.369 305.479 46.901C304.948 46.433 304.193 46.2 303.212 46.2C302.177 46.2 301.354 46.429 300.743 46.888C300.131 47.338 299.726 47.904 299.528 48.588L294.211 48.156C294.481 46.896 295.012 45.808 295.804 44.891C296.595 43.964 297.616 43.253 298.867 42.758C300.126 42.255 301.584 42.003 303.239 42.003C304.391 42.003 305.493 42.138 306.545 42.408C307.607 42.678 308.547 43.096 309.365 43.663C310.186 44.2216 310.857 44.972 311.322 45.849C311.799 46.73 312.037 47.787 312.037 49.019V63H306.586V60.126H306.424C306.089 60.7756 305.636 61.3569 305.088 61.84C304.53 62.325 303.86 62.708 303.077 62.986C302.294 63.256 301.39 63.391 300.365 63.391ZM302.011 59.424C302.857 59.424 303.603 59.258 304.251 58.924C304.871 58.6072 305.397 58.1326 305.776 57.548C306.145 56.972 306.329 56.32 306.329 55.592V53.392C306.149 53.509 305.902 53.617 305.587 53.716C305.281 53.806 304.935 53.891 304.548 53.972C304.161 54.044 303.774 54.112 303.387 54.175L302.335 54.323C301.66 54.423 301.071 54.58 300.567 54.795C300.063 55.011 299.672 55.304 299.393 55.673C299.114 56.033 298.975 56.483 298.975 57.022C298.975 57.805 299.258 58.402 299.825 58.817C300.401 59.222 301.129 59.424 302.011 59.424ZM316.605 63V35.364H322.354V45.754H322.529C322.781 45.197 323.145 44.63 323.622 44.054C324.108 43.469 324.738 42.984 325.511 42.597C326.294 42.201 327.266 42.003 328.426 42.003C329.938 42.003 331.332 42.399 332.609 43.19C333.887 43.973 334.908 45.156 335.673 46.74C336.437 48.314 336.82 50.288 336.82 52.663C336.82 54.975 336.446 56.928 335.7 58.52C334.962 60.103 333.954 61.304 332.677 62.123C331.408 62.933 329.987 63.337 328.413 63.337C327.297 63.337 326.348 63.153 325.565 62.784C324.792 62.415 324.157 61.952 323.663 61.394C323.168 60.827 322.79 60.256 322.529 59.68H322.273V63H316.605ZM322.232 52.636C322.232 53.869 322.403 54.944 322.745 55.861C323.087 56.779 323.582 57.494 324.229 58.007C324.877 58.511 325.664 58.763 326.591 58.763C327.527 58.763 328.318 58.506 328.966 57.993C329.614 57.472 330.104 56.753 330.437 55.834C330.779 54.908 330.95 53.842 330.95 52.636C330.95 51.44 330.783 50.387 330.45 49.479C330.117 48.57 329.627 47.859 328.979 47.347C328.332 46.834 327.536 46.577 326.591 46.577C325.655 46.577 324.864 46.825 324.216 47.32C323.577 47.814 323.087 48.516 322.745 49.425C322.403 50.333 322.232 51.404 322.232 52.636ZM350.02 63.405C347.924 63.405 346.112 62.959 344.582 62.069C343.062 61.169 341.888 59.919 341.06 58.317C340.233 56.707 339.819 54.84 339.819 52.717C339.819 50.577 340.233 48.705 341.06 47.104C341.888 45.494 343.062 44.243 344.582 43.352C346.112 42.452 347.924 42.002 350.02 42.002C352.117 42.002 353.925 42.452 355.445 43.352C356.974 44.242 358.153 45.493 358.981 47.104C359.808 48.705 360.222 50.576 360.222 52.717C360.222 54.84 359.808 56.707 358.981 58.317C358.153 59.919 356.974 61.169 355.445 62.069C353.925 62.959 352.117 63.405 350.02 63.405ZM350.047 58.952C351.001 58.952 351.797 58.682 352.436 58.142C353.075 57.593 353.556 56.847 353.88 55.902C354.213 54.957 354.379 53.882 354.379 52.677C354.379 51.471 354.213 50.397 353.88 49.452C353.556 48.507 353.075 47.76 352.436 47.212C351.797 46.662 351.001 46.388 350.047 46.388C349.085 46.388 348.275 46.663 347.618 47.212C346.971 47.76 346.48 48.507 346.148 49.452C345.824 50.396 345.662 51.472 345.662 52.677C345.662 53.882 345.824 54.957 346.148 55.902C346.48 56.847 346.971 57.593 347.618 58.142C348.275 58.682 349.085 58.952 350.047 58.952ZM377.252 54.175V42.273H383.001V63H377.481V59.235H377.265C376.812 60.431 375.996 61.4549 374.931 62.163C373.851 62.901 372.533 63.27 370.977 63.27C369.592 63.27 368.373 62.955 367.32 62.325C366.268 61.695 365.444 60.8 364.851 59.64C364.266 58.48 363.969 57.09 363.96 55.47V42.273H369.709V54.445C369.718 55.668 370.046 56.635 370.694 57.345C371.341 58.057 372.21 58.412 373.298 58.412C373.991 58.412 374.639 58.255 375.241 57.94C375.851 57.6092 376.356 57.1138 376.699 56.51C377.077 55.88 377.261 55.101 377.252 54.175ZM398.624 42.273V46.591H386.141V42.273H398.624ZM388.975 37.307H394.724V56.63C394.724 57.16 394.805 57.574 394.967 57.871C395.129 58.159 395.353 58.361 395.641 58.478C395.938 58.595 396.28 58.654 396.667 58.654C396.937 58.654 397.207 58.631 397.477 58.586C397.683 58.5445 397.89 58.5041 398.097 58.465L399.001 62.743C398.714 62.833 398.309 62.936 397.787 63.053C397.265 63.179 396.631 63.255 395.884 63.283C394.499 63.336 393.284 63.152 392.241 62.729C391.206 62.306 390.401 61.649 389.825 60.759C389.25 59.869 388.966 58.744 388.975 57.385V37.305V37.307ZM414.712 70.773C413.983 70.773 413.3 70.714 412.661 70.597C412.031 70.489 411.51 70.35 411.096 70.179L412.391 65.888C413.066 66.095 413.673 66.208 414.213 66.225C414.762 66.243 415.234 66.117 415.63 65.847C416.035 65.577 416.363 65.119 416.615 64.471L416.952 63.594L409.517 42.273H415.562L419.854 57.494H420.069L424.401 42.273H430.487L422.431 65.24C422.044 66.356 421.518 67.327 420.852 68.155C420.192 68.9943 419.334 69.6573 418.356 70.085C417.348 70.543 416.134 70.773 414.712 70.773ZM442.126 63.405C440.03 63.405 438.217 62.959 436.688 62.069C435.167 61.169 433.993 59.919 433.166 58.317C432.338 56.707 431.924 54.84 431.924 52.717C431.924 50.577 432.338 48.705 433.166 47.104C433.993 45.494 435.167 44.243 436.688 43.352C438.217 42.452 440.03 42.002 442.126 42.002C444.222 42.002 446.03 42.452 447.551 43.352C449.08 44.242 450.258 45.493 451.086 47.104C451.914 48.705 452.328 50.576 452.328 52.717C452.328 54.84 451.914 56.707 451.086 58.317C450.258 59.919 449.08 61.169 447.551 62.069C446.03 62.959 444.222 63.405 442.126 63.405ZM442.153 58.952C443.106 58.952 443.903 58.682 444.541 58.142C445.18 57.593 445.661 56.847 445.985 55.902C446.318 54.957 446.485 53.882 446.485 52.677C446.485 51.471 446.318 50.397 445.985 49.452C445.661 48.507 445.18 47.76 444.541 47.212C443.903 46.662 443.106 46.388 442.153 46.388C441.19 46.388 440.381 46.663 439.724 47.212C439.076 47.76 438.586 48.507 438.253 49.452C437.929 50.396 437.767 51.472 437.767 52.677C437.767 53.882 437.929 54.957 438.253 55.902C438.586 56.847 439.076 57.593 439.724 58.142C440.381 58.682 441.19 58.952 442.153 58.952ZM469.357 54.175V42.273H475.106V63H469.587V59.235H469.371C468.918 60.431 468.101 61.455 467.036 62.163C465.957 62.901 464.639 63.27 463.083 63.27C461.697 63.27 460.478 62.955 459.426 62.325C458.373 61.695 457.55 60.8 456.956 59.64C456.371 58.48 456.075 57.09 456.066 55.47V42.273H461.814V54.445C461.823 55.668 462.151 56.635 462.799 57.345C463.447 58.057 464.315 58.412 465.404 58.412C466.096 58.412 466.744 58.255 467.347 57.94C467.957 57.6092 468.462 57.1137 468.804 56.51C469.182 55.88 469.366 55.101 469.357 54.175ZM479.704 63V42.273H485.277V45.889H485.493C485.871 44.603 486.505 43.631 487.396 42.974C488.287 42.309 489.312 41.976 490.473 41.976C490.761 41.976 491.071 41.994 491.404 42.03C491.737 42.066 492.029 42.115 492.281 42.178V47.279C491.914 47.1788 491.539 47.1066 491.161 47.063C490.727 47.0032 490.29 46.9718 489.852 46.969C489.006 46.969 488.251 47.153 487.585 47.522C486.936 47.8742 486.395 48.3966 486.02 49.033C485.642 49.681 485.453 50.428 485.453 51.273V63H479.704ZM509.797 51.017V63H504.048V35.364H509.635V45.93H509.877C510.345 44.706 511.101 43.748 512.145 43.055C513.188 42.354 514.497 42.003 516.071 42.003C517.511 42.003 518.766 42.318 519.836 42.947C520.916 43.568 521.752 44.463 522.346 45.633C522.949 46.793 523.246 48.183 523.237 49.803V63H517.488V50.828C517.497 49.551 517.173 48.557 516.517 47.846C515.869 47.136 514.96 46.78 513.791 46.78C513.008 46.78 512.315 46.946 511.713 47.28C511.113 47.6185 510.625 48.1245 510.309 48.736C509.976 49.366 509.806 50.126 509.797 51.017ZM537.207 63.405C535.075 63.405 533.24 62.973 531.701 62.109C530.172 61.237 528.993 60.004 528.166 58.412C527.338 56.811 526.924 54.917 526.924 52.731C526.924 50.599 527.338 48.727 528.166 47.117C528.993 45.507 530.158 44.252 531.661 43.352C533.172 42.452 534.944 42.002 536.977 42.002C538.345 42.002 539.618 42.223 540.796 42.664C541.961 43.0818 543.021 43.7498 543.9 44.621C544.791 45.493 545.483 46.591 545.978 47.913C546.473 49.227 546.72 50.765 546.72 52.528V54.108H529.218V50.545H541.309C541.309 49.717 541.129 48.984 540.769 48.345C540.419 47.7157 539.9 47.1968 539.271 46.847C538.642 46.478 537.909 46.294 537.072 46.294C536.199 46.294 535.426 46.496 534.751 46.901C534.095 47.2865 533.554 47.8412 533.186 48.507C532.804 49.187 532.604 49.9541 532.605 50.734V54.121C532.605 55.146 532.794 56.032 533.172 56.779C533.536 57.5017 534.104 58.102 534.805 58.506C535.507 58.911 536.339 59.114 537.301 59.114C537.94 59.114 538.525 59.024 539.056 58.844C539.586 58.664 540.041 58.394 540.419 58.034C540.796 57.674 541.084 57.234 541.282 56.712L546.599 57.062C546.347 58.3034 545.775 59.4573 544.939 60.409C544.111 61.354 543.041 62.091 541.727 62.622C540.423 63.144 538.916 63.405 537.207 63.405ZM556.382 63.391C555.06 63.391 553.881 63.161 552.847 62.703C551.812 62.235 550.994 61.547 550.391 60.638C549.797 59.721 549.5 58.578 549.5 57.211C549.5 56.059 549.712 55.092 550.134 54.31C550.541 53.5442 551.136 52.894 551.862 52.42C552.626 51.9276 553.464 51.5628 554.345 51.34C555.31 51.0922 556.294 50.921 557.286 50.828C558.26 50.7305 559.232 50.6138 560.201 50.478C560.939 50.36 561.474 50.189 561.807 49.964C562.14 49.74 562.306 49.407 562.306 48.966V48.885C562.306 48.03 562.036 47.369 561.497 46.901C560.966 46.433 560.21 46.2 559.23 46.2C558.195 46.2 557.372 46.429 556.76 46.888C556.148 47.338 555.744 47.904 555.546 48.588L550.229 48.156C550.499 46.896 551.03 45.808 551.821 44.891C552.613 43.964 553.634 43.253 554.884 42.758C556.144 42.255 557.601 42.003 559.257 42.003C560.408 42.003 561.51 42.138 562.563 42.408C563.624 42.678 564.564 43.096 565.383 43.663C566.204 44.2216 566.875 44.972 567.34 45.849C567.816 46.73 568.055 47.787 568.055 49.019V63H562.603V60.126H562.441C562.107 60.7758 561.654 61.3572 561.105 61.84C560.548 62.325 559.877 62.708 559.095 62.986C558.312 63.256 557.408 63.391 556.382 63.391ZM558.029 59.424C558.874 59.424 559.621 59.258 560.269 58.924C560.889 58.6069 561.415 58.1324 561.794 57.548C562.165 56.9637 562.357 56.2839 562.347 55.592V53.392C562.115 53.5321 561.866 53.641 561.605 53.716C561.299 53.806 560.952 53.891 560.566 53.972C560.179 54.044 559.792 54.112 559.405 54.175L558.352 54.323C557.678 54.423 557.088 54.58 556.585 54.795C556.081 55.011 555.69 55.304 555.411 55.673C555.132 56.033 554.992 56.483 554.992 57.022C554.992 57.805 555.276 58.402 555.843 58.817C556.418 59.222 557.147 59.424 558.029 59.424ZM578.263 35.364V63H572.515V35.364H578.263ZM593.893 42.273V46.591H581.411V42.273H593.893ZM584.245 37.307H589.993V56.63C589.993 57.16 590.074 57.574 590.236 57.871C590.398 58.159 590.623 58.361 590.911 58.478C591.208 58.595 591.55 58.654 591.936 58.654C592.206 58.654 592.476 58.631 592.746 58.586C593.016 58.532 593.223 58.492 593.367 58.465L594.271 62.743C593.983 62.833 593.578 62.936 593.056 63.053C592.535 63.179 591.9 63.255 591.154 63.283C589.768 63.336 588.554 63.152 587.51 62.729C586.476 62.306 585.671 61.649 585.095 60.759C584.519 59.869 584.236 58.744 584.245 57.385V37.305V37.307ZM603.832 51.017V63H598.083V35.364H603.67V45.93H603.913C604.38 44.706 605.136 43.748 606.18 43.055C607.223 42.354 608.532 42.003 610.107 42.003C611.546 42.003 612.801 42.318 613.871 42.947C614.951 43.568 615.788 44.463 616.381 45.633C616.984 46.793 617.281 48.183 617.272 49.803V63H611.523V50.828C611.532 49.551 611.209 48.557 610.552 47.846C609.904 47.136 608.996 46.78 607.826 46.78C607.043 46.78 606.351 46.946 605.748 47.28C605.148 47.6185 604.66 48.1245 604.344 48.736C604.012 49.366 603.841 50.126 603.832 51.017ZM625.156 63.351C624.73 63.3569 624.306 63.2762 623.912 63.1137C623.518 62.9513 623.161 62.7105 622.862 62.406C622.558 62.1075 622.317 61.7503 622.154 61.3559C621.992 60.9616 621.911 60.5384 621.917 60.112C621.917 59.231 622.232 58.475 622.862 57.845C623.161 57.5407 623.518 57.3001 623.912 57.1379C624.307 56.9756 624.73 56.895 625.156 56.901C626.02 56.901 626.775 57.215 627.423 57.845C628.071 58.475 628.395 59.231 628.395 60.112C628.395 60.706 628.242 61.25 627.936 61.745C627.645 62.2251 627.242 62.6279 626.762 62.919C626.276 63.207 625.721 63.3564 625.156 63.351ZM53.0451 94C52.8711 93.4537 52.6217 92.9343 52.3041 92.457C52.0122 92.0069 51.6463 91.6093 51.2221 91.281C50.7978 90.9524 50.3188 90.7015 49.8071 90.54C49.2443 90.3643 48.6575 90.2779 48.0681 90.284C47.0705 90.2739 46.0913 90.552 45.2481 91.085C44.4011 91.619 43.7281 92.406 43.2281 93.446C42.7281 94.486 42.4781 95.761 42.4781 97.273C42.4781 98.784 42.7301 100.06 43.2361 101.099C43.7421 102.139 44.4261 102.926 45.2901 103.46C46.1531 103.994 47.1251 104.261 48.2051 104.261C49.2051 104.261 50.0851 104.048 50.8471 103.622C51.6062 103.198 52.2275 102.565 52.6371 101.798C53.0681 101.009 53.2841 100.08 53.2841 99.011L53.9321 99.148H48.6821V97.273H55.3301V99.148C55.3301 100.585 55.0231 101.835 54.4101 102.898C53.8189 103.943 52.9438 104.8 51.8861 105.369C50.8181 105.949 49.5911 106.239 48.2051 106.239C46.6591 106.239 45.3011 105.875 44.1311 105.148C42.9661 104.42 42.0571 103.386 41.4031 102.045C40.7561 100.705 40.4321 99.114 40.4321 97.273C40.4321 95.892 40.6161 94.651 40.9861 93.548C41.3611 92.44 41.8891 91.498 42.5711 90.718C43.237 89.9516 44.0631 89.3409 44.9911 88.929C45.9231 88.514 46.9491 88.307 48.0681 88.307C48.9881 88.307 49.8471 88.446 50.6421 88.724C51.419 88.9834 52.1436 89.3789 52.7821 89.892C53.4121 90.392 53.9381 90.992 54.3581 91.69C54.7781 92.384 55.0681 93.153 55.2281 94H53.0451ZM64.1651 106.273C62.9051 106.273 61.8161 105.994 60.9011 105.438C59.9921 104.875 59.2911 104.091 58.7961 103.085C58.3071 102.074 58.0631 100.898 58.0631 99.557C58.0631 98.216 58.3071 97.034 58.7961 96.011C59.2911 94.983 59.9781 94.181 60.8591 93.608C61.7451 93.028 62.7791 92.738 63.9611 92.738C64.6431 92.738 65.3161 92.852 65.9811 93.079C66.6461 93.307 67.2511 93.676 67.7961 94.188C68.3421 94.693 68.7761 95.364 69.1001 96.198C69.4241 97.034 69.5861 98.063 69.5861 99.284V100.136H59.4951V98.398H67.5401C67.5401 97.659 67.3931 97 67.0971 96.421C66.8202 95.8552 66.3889 95.3792 65.8531 95.048C65.3191 94.713 64.6881 94.546 63.9611 94.546C63.1601 94.546 62.4671 94.744 61.8811 95.142C61.3079 95.5268 60.8464 96.0559 60.5431 96.676C60.231 97.3063 60.0707 98.0008 60.0751 98.704V99.864C60.0751 100.852 60.2451 101.69 60.5851 102.378C60.9321 103.06 61.4131 103.58 62.0261 103.938C62.6401 104.29 63.3531 104.466 64.1661 104.466C64.6941 104.466 65.1711 104.392 65.5971 104.244C66.0291 104.091 66.4011 103.864 66.7141 103.562C67.0261 103.256 67.2681 102.875 67.4381 102.42L69.3811 102.966C69.1804 103.619 68.8274 104.215 68.3511 104.705C67.8671 105.199 67.2711 105.585 66.5611 105.864C65.8511 106.136 65.0511 106.273 64.1651 106.273ZM78.34 92.909V94.614H71.5561V92.909H78.34ZM73.5331 89.773H75.5441V102.25C75.5441 102.818 75.6271 103.244 75.7911 103.528C75.9611 103.807 76.1781 103.994 76.4391 104.091C76.7061 104.182 76.9881 104.227 77.2831 104.227C77.5051 104.227 77.6861 104.216 77.8281 104.193L78.1691 104.125L78.5791 105.932C78.3923 105.997 78.2012 106.048 78.0071 106.085C77.7015 106.148 77.3899 106.176 77.0781 106.17C76.5017 106.168 75.9324 106.043 75.4081 105.804C74.8672 105.559 74.402 105.174 74.0611 104.688C73.7091 104.188 73.5331 103.557 73.5331 102.795V89.773ZM93.8091 92.909V94.614H87.0241V92.909H93.8091ZM89.0001 89.773H91.0111V102.25C91.0111 102.818 91.0931 103.244 91.2581 103.528C91.4281 103.807 91.6451 103.994 91.9061 104.091C92.1731 104.182 92.4541 104.227 92.7501 104.227C92.9711 104.227 93.1531 104.216 93.2951 104.193L93.6361 104.125L94.0461 105.932C93.8593 105.997 93.6682 106.048 93.4741 106.085C93.1685 106.148 92.8569 106.176 92.5451 106.17C91.9687 106.168 91.3994 106.043 90.8751 105.804C90.3342 105.559 89.869 105.174 89.5281 104.688C89.1761 104.188 89.0001 103.557 89.0001 102.795V89.773ZM96.8331 106V92.91H98.7761V94.886H98.9131C99.1511 94.239 99.5831 93.713 100.208 93.31C100.838 92.9048 101.573 92.6941 102.322 92.704C102.469 92.704 102.654 92.707 102.876 92.714C103.097 92.719 103.265 92.727 103.379 92.739V94.784C103.224 94.7522 103.067 94.7265 102.91 94.707C102.659 94.6662 102.405 94.6461 102.151 94.647C101.515 94.647 100.947 94.781 100.447 95.048C99.9639 95.299 99.5575 95.676 99.2711 96.139C98.9826 96.6138 98.8345 97.1606 98.8441 97.716V106H96.8331ZM114.013 100.648V92.909H116.024V106H114.013V103.784H113.876C113.57 104.449 113.092 105.014 112.445 105.48C111.797 105.94 110.979 106.17 109.99 106.17C109.172 106.17 108.445 105.991 107.808 105.634C107.172 105.27 106.672 104.724 106.308 103.997C105.945 103.264 105.763 102.341 105.763 101.227V92.909H107.774V101.091C107.774 102.045 108.041 102.807 108.575 103.375C109.115 103.943 109.803 104.227 110.638 104.227C111.138 104.227 111.646 104.099 112.163 103.844C112.698 103.577 113.152 103.171 113.476 102.668C113.834 102.139 114.013 101.466 114.013 100.648ZM128.981 95.841L127.174 96.352C127.052 96.0356 126.882 95.7396 126.671 95.474C126.436 95.1688 126.133 94.9234 125.785 94.758C125.41 94.571 124.93 94.478 124.344 94.478C123.543 94.478 122.876 94.662 122.342 95.031C121.813 95.395 121.549 95.858 121.549 96.421C121.549 96.921 121.731 97.315 122.094 97.605C122.458 97.895 123.026 98.136 123.799 98.329L125.742 98.807C126.913 99.091 127.785 99.526 128.359 100.111C128.933 100.69 129.219 101.437 129.219 102.352C129.219 103.102 129.004 103.773 128.572 104.364C128.146 104.955 127.549 105.42 126.782 105.761C126.015 106.102 125.123 106.273 124.106 106.273C122.771 106.273 121.665 105.983 120.79 105.403C119.915 104.824 119.362 103.977 119.129 102.864L121.038 102.386C121.219 103.091 121.563 103.619 122.069 103.972C122.58 104.324 123.248 104.5 124.072 104.5C125.009 104.5 125.754 104.301 126.305 103.903C126.862 103.5 127.14 103.017 127.14 102.455C127.14 102 126.981 101.619 126.663 101.312C126.344 101 125.856 100.767 125.197 100.614L123.015 100.102C121.816 99.818 120.935 99.378 120.373 98.782C119.816 98.179 119.538 97.426 119.538 96.522C119.538 95.784 119.745 95.131 120.16 94.562C120.58 93.994 121.151 93.548 121.873 93.224C122.6 92.901 123.424 92.739 124.344 92.739C125.64 92.739 126.657 93.023 127.396 93.591C128.14 94.159 128.668 94.909 128.981 95.841ZM137.94 92.909V94.614H131.156V92.909H137.94ZM133.134 89.773H135.145V102.25C135.145 102.818 135.227 103.244 135.392 103.528C135.563 103.807 135.778 103.994 136.04 104.091C136.307 104.182 136.588 104.227 136.884 104.227C137.105 104.227 137.287 104.216 137.429 104.193L137.77 104.125L138.179 105.932C137.993 105.997 137.802 106.048 137.608 106.085C137.303 106.148 136.991 106.176 136.679 106.17C136.103 106.168 135.533 106.043 135.009 105.804C134.468 105.559 134.003 105.174 133.662 104.688C133.31 104.188 133.134 103.557 133.134 102.795V89.773ZM146.314 106.273C145.053 106.273 143.964 105.994 143.05 105.438C142.141 104.875 141.439 104.091 140.945 103.085C140.456 102.074 140.212 100.898 140.212 99.557C140.212 98.216 140.456 97.034 140.945 96.011C141.439 94.983 142.126 94.181 143.007 93.608C143.893 93.028 144.928 92.738 146.109 92.738C146.791 92.738 147.464 92.852 148.129 93.079C148.807 93.3144 149.426 93.6926 149.945 94.188C150.49 94.693 150.925 95.364 151.249 96.198C151.572 97.034 151.734 98.063 151.734 99.284V100.136H141.643V98.398H149.689C149.689 97.659 149.541 97 149.246 96.421C148.969 95.8551 148.537 95.3791 148.001 95.048C147.467 94.713 146.837 94.546 146.109 94.546C145.308 94.546 144.615 94.744 144.03 95.142C143.457 95.5265 142.995 96.0557 142.692 96.676C142.379 97.3061 142.219 98.0007 142.223 98.704V99.864C142.223 100.852 142.393 101.69 142.734 102.378C143.081 103.06 143.561 103.58 144.175 103.938C144.788 104.29 145.501 104.466 146.314 104.466C146.842 104.466 147.32 104.392 147.746 104.244C148.163 104.1 148.544 103.868 148.862 103.562C149.175 103.256 149.416 102.875 149.587 102.42L151.53 102.966C151.329 103.619 150.976 104.215 150.499 104.705C150.016 105.199 149.419 105.585 148.709 105.864C147.999 106.136 147.2 106.273 146.314 106.273ZM159.737 106.273C158.646 106.273 157.683 105.997 156.848 105.446C156.013 104.889 155.359 104.105 154.888 103.094C154.416 102.077 154.18 100.875 154.18 99.489C154.18 98.114 154.416 96.92 154.888 95.909C155.359 94.898 156.016 94.116 156.857 93.565C157.697 93.015 158.669 92.739 159.771 92.739C160.624 92.739 161.297 92.881 161.791 93.165C162.291 93.443 162.672 93.761 162.933 94.119C163.2 94.472 163.408 94.761 163.555 94.989H163.726V88.545H165.737V106H163.794V103.989H163.555C163.408 104.227 163.197 104.528 162.925 104.892C162.652 105.25 162.263 105.571 161.757 105.855C161.251 106.134 160.578 106.273 159.737 106.273ZM160.01 104.466C160.817 104.466 161.499 104.256 162.055 103.835C162.612 103.409 163.036 102.821 163.325 102.071C163.615 101.315 163.76 100.443 163.76 99.454C163.76 98.477 163.618 97.622 163.334 96.889C163.05 96.151 162.629 95.577 162.072 95.168C161.516 94.753 160.828 94.545 160.01 94.545C159.158 94.545 158.447 94.765 157.879 95.202C157.317 95.633 156.893 96.222 156.609 96.966C156.331 97.705 156.192 98.534 156.192 99.455C156.192 100.386 156.334 101.233 156.618 101.994C156.908 102.75 157.334 103.352 157.896 103.801C158.464 104.244 159.169 104.466 160.01 104.466ZM180.303 106.307C179.473 106.307 178.72 106.151 178.044 105.838C177.39 105.539 176.833 105.064 176.433 104.466C176.036 103.864 175.837 103.136 175.837 102.284C175.837 101.534 175.984 100.926 176.28 100.46C176.575 99.989 176.97 99.62 177.464 99.352C177.979 99.0777 178.53 98.8771 179.101 98.756C179.701 98.62 180.306 98.5119 180.916 98.432C181.56 98.3477 182.205 98.271 182.851 98.202C183.351 98.145 183.714 98.052 183.942 97.921C184.175 97.79 184.291 97.562 184.291 97.239V97.17C184.291 96.33 184.061 95.676 183.601 95.21C183.146 94.744 182.456 94.511 181.53 94.511C180.57 94.511 179.817 94.721 179.271 95.142C178.726 95.562 178.342 96.012 178.121 96.489L176.212 95.807C176.553 95.011 177.007 94.392 177.575 93.949C178.129 93.5102 178.767 93.1908 179.45 93.011C180.106 92.8329 180.782 92.7415 181.462 92.739C181.882 92.739 182.365 92.789 182.911 92.892C183.475 92.9934 184.015 93.1985 184.504 93.497C185.021 93.804 185.45 94.267 185.791 94.887C186.132 95.506 186.303 96.335 186.303 97.375V106H184.291V104.227H184.189C184.053 104.511 183.825 104.815 183.507 105.139C183.189 105.463 182.766 105.739 182.237 105.966C181.709 106.193 181.064 106.307 180.303 106.307ZM180.609 104.5C181.405 104.5 182.075 104.344 182.621 104.031C183.172 103.719 183.587 103.315 183.865 102.821C184.143 102.348 184.29 101.81 184.291 101.261V99.421C184.206 99.523 184.018 99.616 183.729 99.701C183.445 99.781 183.115 99.852 182.74 99.915C182.1 100.015 181.458 100.1 180.814 100.17C180.316 100.233 179.825 100.345 179.348 100.503C178.899 100.651 178.536 100.875 178.257 101.176C177.984 101.472 177.848 101.875 177.848 102.386C177.848 103.085 178.107 103.614 178.624 103.972C179.146 104.324 179.808 104.5 180.609 104.5ZM191.985 98.125V106H189.974V92.91H191.917V94.954H192.087C192.388 94.296 192.874 93.7395 193.485 93.352C194.11 92.943 194.917 92.739 195.906 92.739C196.792 92.739 197.567 92.92 198.232 93.284C198.897 93.642 199.414 94.187 199.783 94.92C200.153 95.648 200.337 96.568 200.337 97.682V106H198.326V97.818C198.326 96.79 198.059 95.988 197.525 95.415C196.991 94.835 196.258 94.545 195.326 94.545C194.684 94.545 194.11 94.685 193.604 94.963C193.104 95.242 192.71 95.648 192.42 96.182C192.13 96.716 191.985 97.364 191.985 98.125ZM213.286 95.841L211.479 96.352C211.356 96.0358 211.187 95.7398 210.976 95.474C210.741 95.1688 210.437 94.9234 210.089 94.758C209.714 94.571 209.234 94.478 208.649 94.478C207.848 94.478 207.18 94.662 206.646 95.031C206.118 95.395 205.854 95.858 205.854 96.421C205.854 96.921 206.036 97.315 206.399 97.605C206.763 97.895 207.331 98.136 208.104 98.329L210.047 98.807C211.217 99.091 212.089 99.526 212.663 100.111C213.237 100.69 213.524 101.437 213.524 102.352C213.524 103.102 213.308 103.773 212.876 104.364C212.45 104.955 211.854 105.42 211.087 105.761C210.32 106.102 209.428 106.273 208.411 106.273C207.075 106.273 205.97 105.983 205.095 105.403C204.22 104.824 203.666 103.977 203.433 102.864L205.342 102.386C205.524 103.091 205.868 103.619 206.374 103.972C206.885 104.324 207.553 104.5 208.376 104.5C209.314 104.5 210.058 104.301 210.609 103.903C211.166 103.5 211.445 103.017 211.445 102.455C211.445 102 211.286 101.619 210.967 101.312C210.649 101 210.161 100.767 209.501 100.614L207.32 100.102C206.121 99.818 205.24 99.378 204.678 98.782C204.121 98.179 203.842 97.426 203.842 96.522C203.842 95.784 204.05 95.131 204.464 94.562C204.885 93.994 205.456 93.548 206.178 93.224C206.905 92.901 207.729 92.739 208.649 92.739C209.945 92.739 210.962 93.023 211.7 93.591C212.445 94.159 212.973 94.909 213.286 95.841ZM219.518 106L215.529 92.91H217.643L220.472 102.932H220.609L223.404 92.909H225.552L228.313 102.898H228.45L231.279 92.909H233.393L229.404 106H227.427L224.563 95.943H224.359L221.495 106H219.518ZM241.095 106.273C239.834 106.273 238.746 105.994 237.831 105.438C236.922 104.875 236.22 104.091 235.726 103.085C235.237 102.074 234.993 100.898 234.993 99.557C234.993 98.216 235.237 97.034 235.726 96.011C236.22 94.983 236.908 94.181 237.788 93.608C238.675 93.028 239.709 92.738 240.891 92.738C241.572 92.738 242.246 92.852 242.911 93.079C243.588 93.3146 244.207 93.6928 244.726 94.188C245.271 94.693 245.706 95.364 246.03 96.198C246.354 97.034 246.516 98.063 246.516 99.284V100.136H236.425V98.398H244.47C244.47 97.659 244.322 97 244.027 96.421C243.75 95.8553 243.319 95.3794 242.783 95.048C242.249 94.713 241.618 94.546 240.891 94.546C240.089 94.546 239.396 94.744 238.811 95.142C238.238 95.5271 237.777 96.0561 237.473 96.676C237.161 97.3063 237 98.0007 237.004 98.704V99.864C237.004 100.852 237.175 101.69 237.516 102.378C237.862 103.06 238.342 103.58 238.956 103.938C239.57 104.29 240.283 104.466 241.095 104.466C241.624 104.466 242.101 104.392 242.527 104.244C242.944 104.1 243.325 103.868 243.643 103.562C243.956 103.256 244.197 102.875 244.368 102.42L246.311 102.966C246.11 103.619 245.757 104.215 245.28 104.705C244.797 105.199 244.2 105.585 243.49 105.864C242.78 106.136 241.982 106.273 241.095 106.273ZM249.575 106V92.91H251.518V94.886H251.655C251.893 94.239 252.325 93.713 252.95 93.31C253.58 92.9048 254.315 92.6941 255.064 92.704C255.212 92.704 255.396 92.707 255.618 92.714C255.839 92.719 256.007 92.727 256.121 92.739V94.784C255.966 94.7521 255.809 94.7265 255.652 94.707C255.401 94.6661 255.147 94.6461 254.893 94.647C254.257 94.647 253.689 94.781 253.189 95.048C252.706 95.2992 252.3 95.6761 252.013 96.139C251.725 96.6139 251.577 97.1607 251.587 97.716V106H249.575ZM267.778 95.84L265.971 96.352C265.849 96.0356 265.679 95.7396 265.468 95.474C265.233 95.1688 264.93 94.9234 264.582 94.758C264.207 94.571 263.727 94.478 263.141 94.478C262.34 94.478 261.673 94.662 261.138 95.031C260.61 95.395 260.346 95.858 260.346 96.421C260.346 96.921 260.528 97.315 260.891 97.605C261.255 97.895 261.823 98.136 262.596 98.329L264.539 98.807C265.71 99.091 266.582 99.526 267.156 100.111C267.729 100.69 268.016 101.437 268.016 102.352C268.025 103.075 267.797 103.781 267.369 104.364C266.942 104.955 266.346 105.42 265.579 105.761C264.812 106.102 263.92 106.273 262.903 106.273C261.567 106.273 260.462 105.983 259.587 105.403C258.712 104.824 258.158 103.977 257.925 102.864L259.835 102.386C260.016 103.091 260.36 103.619 260.866 103.972C261.377 104.324 262.045 104.5 262.869 104.5C263.806 104.5 264.55 104.301 265.102 103.903C265.658 103.5 265.937 103.017 265.937 102.455C265.937 102 265.778 101.619 265.46 101.312C265.141 101 264.653 100.767 263.994 100.614L261.812 100.102C260.613 99.818 259.732 99.378 259.17 98.782C258.613 98.179 258.335 97.426 258.335 96.522C258.335 95.784 258.542 95.131 258.957 94.562C259.377 93.994 259.948 93.548 260.67 93.224C261.397 92.901 262.221 92.739 263.141 92.739C264.437 92.739 265.454 93.023 266.192 93.591C266.937 94.159 267.465 94.909 267.778 95.841V95.84ZM282.737 106.273C281.646 106.273 280.683 105.997 279.848 105.446C279.013 104.889 278.359 104.105 277.888 103.094C277.416 102.077 277.18 100.875 277.18 99.489C277.18 98.114 277.416 96.92 277.888 95.909C278.359 94.898 279.016 94.116 279.857 93.565C280.697 93.015 281.669 92.739 282.771 92.739C283.624 92.739 284.297 92.881 284.791 93.165C285.291 93.443 285.672 93.761 285.933 94.119C286.2 94.472 286.408 94.761 286.555 94.989H286.726V88.545H288.737V106H286.794V103.989H286.555C286.408 104.227 286.197 104.528 285.925 104.892C285.652 105.25 285.263 105.571 284.757 105.855C284.251 106.134 283.578 106.273 282.737 106.273ZM283.01 104.466C283.817 104.466 284.499 104.256 285.055 103.835C285.612 103.409 286.036 102.821 286.325 102.071C286.615 101.315 286.76 100.443 286.76 99.454C286.76 98.477 286.618 97.622 286.334 96.889C286.05 96.151 285.629 95.577 285.072 95.168C284.516 94.753 283.828 94.545 283.01 94.545C282.158 94.545 281.447 94.765 280.879 95.202C280.317 95.633 279.893 96.222 279.609 96.966C279.331 97.705 279.192 98.534 279.192 99.455C279.192 100.386 279.334 101.233 279.618 101.994C279.908 102.75 280.334 103.352 280.896 103.801C281.464 104.244 282.169 104.466 283.01 104.466ZM292.7 106V92.91H294.712V106H292.7ZM293.723 90.727C293.345 90.7328 292.981 90.589 292.709 90.327C292.576 90.205 292.469 90.0561 292.397 89.8902C292.325 89.7242 292.289 89.5449 292.291 89.364C292.291 88.989 292.43 88.668 292.709 88.401C292.981 88.1387 293.345 87.9945 293.723 88C294.115 88 294.45 88.133 294.729 88.4C295.013 88.668 295.155 88.989 295.155 89.364C295.155 89.739 295.013 90.06 294.729 90.327C294.45 90.594 294.115 90.727 293.723 90.727ZM298.396 106V92.91H300.339V94.886H300.475C300.714 94.239 301.146 93.713 301.771 93.31C302.401 92.9048 303.135 92.694 303.884 92.704C304.032 92.704 304.217 92.707 304.438 92.714C304.66 92.719 304.827 92.727 304.941 92.739V94.784C304.786 94.752 304.629 94.7264 304.472 94.707C304.221 94.6661 303.968 94.6461 303.714 94.647C303.077 94.647 302.509 94.781 302.009 95.048C301.526 95.2992 301.12 95.6761 300.833 96.139C300.545 96.6139 300.397 97.1607 300.407 97.716V106H298.396ZM312.415 106.273C311.154 106.273 310.066 105.994 309.151 105.438C308.242 104.875 307.54 104.091 307.046 103.085C306.558 102.074 306.313 100.898 306.313 99.557C306.313 98.216 306.558 97.034 307.046 96.011C307.54 94.983 308.228 94.181 309.109 93.608C309.995 93.028 311.029 92.738 312.211 92.738C312.893 92.738 313.566 92.852 314.231 93.079C314.896 93.307 315.501 93.676 316.046 94.188C316.592 94.693 317.026 95.364 317.35 96.198C317.674 97.034 317.836 98.063 317.836 99.284V100.136H307.745V98.398H315.79C315.79 97.659 315.643 97 315.347 96.421C315.071 95.8549 314.639 95.3789 314.103 95.048C313.569 94.713 312.938 94.546 312.211 94.546C311.41 94.546 310.717 94.744 310.131 95.142C309.558 95.5271 309.097 96.0561 308.793 96.676C308.481 97.3063 308.321 98.0008 308.325 98.704V99.864C308.325 100.852 308.495 101.69 308.836 102.378C309.183 103.06 309.663 103.58 310.276 103.938C310.89 104.29 311.603 104.466 312.415 104.466C312.944 104.466 313.421 104.392 313.847 104.244C314.279 104.091 314.651 103.864 314.964 103.562C315.276 103.256 315.518 102.875 315.688 102.42L317.631 102.966C317.43 103.619 317.077 104.215 316.6 104.705C316.093 105.215 315.483 105.61 314.81 105.864C314.1 106.136 313.302 106.273 312.415 106.273ZM326.214 106.273C324.987 106.273 323.93 105.983 323.043 105.403C322.157 104.824 321.475 104.026 320.998 103.009C320.521 101.991 320.282 100.83 320.282 99.523C320.282 98.193 320.526 97.02 321.015 96.003C321.509 94.98 322.197 94.182 323.077 93.608C323.964 93.028 324.998 92.738 326.18 92.738C327.1 92.738 327.93 92.909 328.668 93.25C329.407 93.59 330.012 94.068 330.484 94.682C330.955 95.296 331.248 96.012 331.362 96.829H329.35C329.197 96.233 328.856 95.705 328.327 95.244C327.805 94.778 327.1 94.546 326.214 94.546C325.43 94.546 324.742 94.75 324.151 95.159C323.566 95.562 323.109 96.133 322.779 96.872C322.455 97.605 322.293 98.466 322.293 99.454C322.293 100.466 322.452 101.347 322.771 102.097C323.094 102.847 323.549 103.429 324.134 103.844C324.725 104.259 325.418 104.466 326.214 104.466C326.737 104.466 327.211 104.375 327.637 104.193C328.053 104.018 328.424 103.75 328.719 103.409C329.022 103.055 329.238 102.634 329.35 102.182H331.362C331.256 102.937 330.966 103.653 330.518 104.27C330.075 104.884 329.487 105.372 328.754 105.736C328.026 106.094 327.18 106.273 326.214 106.273ZM339.995 92.909V94.614H333.211V92.909H339.995ZM335.188 89.773H337.2V102.25C337.2 102.818 337.282 103.244 337.447 103.528C337.617 103.807 337.833 103.994 338.094 104.091C338.362 104.182 338.643 104.227 338.938 104.227C339.16 104.227 339.342 104.216 339.484 104.193L339.825 104.125L340.234 105.932C340.048 105.997 339.857 106.048 339.663 106.085C339.358 106.148 339.046 106.176 338.734 106.17C338.157 106.168 337.588 106.043 337.063 105.804C336.523 105.559 336.058 105.174 335.717 104.688C335.364 104.188 335.188 103.557 335.188 102.795V89.773ZM345.313 88.546V106H343.302V88.546H345.313ZM350.293 110.909C349.952 110.909 349.648 110.881 349.381 110.824C349.114 110.773 348.929 110.722 348.827 110.67L349.338 108.898C349.827 109.023 350.259 109.068 350.634 109.034C351.009 109 351.341 108.832 351.631 108.531C351.926 108.236 352.196 107.756 352.44 107.091L352.815 106.068L347.974 92.909H350.156L353.77 103.341H353.906L357.52 92.909H359.702L354.145 107.909C353.895 108.585 353.585 109.145 353.216 109.588C352.872 110.018 352.431 110.359 351.929 110.585C351.446 110.801 350.901 110.909 350.293 110.909Z" fill="white"/>
<path opacity="0.5" d="M616.763 130.959C633.752 130.959 647.525 144.732 647.525 161.722C647.533 166.967 646.193 172.126 643.634 176.705C642.531 178.682 642.864 181.149 644.485 182.731L651.543 189.62C652.614 190.666 651.873 192.484 650.375 192.484H616.763C599.773 192.484 586 178.711 586 161.722C586 144.732 599.786 130.959 616.763 130.959Z" fill="#FF642D" fill-opacity="0.7"/>
<path d="M601.924 158.725H601.923C599.79 158.725 598.061 160.454 598.061 162.587V162.588C598.061 164.721 599.79 166.45 601.923 166.45H601.924C604.057 166.45 605.786 164.721 605.786 162.588V162.587C605.786 160.454 604.057 158.725 601.924 158.725Z" fill="#BB3506"/>
<path d="M615.956 158.725H615.955C613.822 158.725 612.093 160.454 612.093 162.587V162.588C612.093 164.721 613.822 166.45 615.955 166.45H615.956C618.089 166.45 619.818 164.721 619.818 162.588V162.587C619.818 160.454 618.089 158.725 615.956 158.725Z" fill="#BB3506"/>
<path d="M629.988 158.725H629.987C627.854 158.725 626.125 160.454 626.125 162.587V162.588C626.125 164.721 627.854 166.45 629.987 166.45H629.988C632.121 166.45 633.85 164.721 633.85 162.588V162.587C633.85 160.454 632.121 158.725 629.988 158.725Z" fill="#BB3506"/>
</g>
</g>
<defs>
<linearGradient id="paint0_linear_57_77" x1="638" y1="0" x2="638" y2="279.22" gradientUnits="userSpaceOnUse">
<stop offset="0.118" stop-color="#F15A24"/>
<stop offset="1" stop-color="#8B3415"/>
</linearGradient>
<linearGradient id="paint1_linear_57_77" x1="1008.35" y1="119.126" x2="1033.11" y2="241.646" gradientUnits="userSpaceOnUse">
<stop offset="0.478" stop-color="#1B1B18"/>
<stop offset="1" stop-color="#2F2D27"/>
</linearGradient>
<linearGradient id="paint2_linear_57_77" x1="1099.58" y1="119.084" x2="1074.81" y2="241.604" gradientUnits="userSpaceOnUse">
<stop offset="0.478" stop-color="#1B1B18"/>
<stop offset="1" stop-color="#2F2D27"/>
</linearGradient>
<linearGradient id="paint3_linear_57_77" x1="1051.54" y1="30.416" x2="1051.13" y2="105.825" gradientUnits="userSpaceOnUse">
<stop stop-color="#F4C391"/>
<stop offset="0.93" stop-color="#F7A86F"/>
</linearGradient>
<linearGradient id="paint4_linear_57_77" x1="1052.5" y1="92.888" x2="1051.91" y2="112.321" gradientUnits="userSpaceOnUse">
<stop stop-color="white" stop-opacity="0"/>
<stop offset="1" stop-color="white" stop-opacity="0.2"/>
</linearGradient>
<linearGradient id="paint5_linear_57_77" x1="1087.85" y1="60.591" x2="1087.85" y2="25.719" gradientUnits="userSpaceOnUse">
<stop offset="0.15" stop-color="white"/>
<stop offset="1" stop-color="#262626"/>
</linearGradient>
<linearGradient id="paint6_linear_57_77" x1="1019.48" y1="63.171" x2="1019.47" y2="27.255" gradientUnits="userSpaceOnUse">
<stop offset="0.17" stop-color="white"/>
<stop offset="1" stop-color="#262626"/>
</linearGradient>
<linearGradient id="paint7_linear_57_77" x1="1048.08" y1="31.196" x2="1048.42" y2="4.91301" gradientUnits="userSpaceOnUse">
<stop stop-color="white"/>
<stop offset="1" stop-color="#585858"/>
</linearGradient>
<linearGradient id="paint8_linear_57_77" x1="1025.57" y1="32.429" x2="1025.57" y2="66.856" gradientUnits="userSpaceOnUse">
<stop stop-color="#F19E5A"/>
<stop offset="0.87" stop-color="#F4C391"/>
</linearGradient>
<linearGradient id="paint9_linear_57_77" x1="1078.22" y1="32.429" x2="1078.22" y2="66.856" gradientUnits="userSpaceOnUse">
<stop stop-color="#F19E5A"/>
<stop offset="0.87" stop-color="#F4C391"/>
</linearGradient>
<linearGradient id="paint10_linear_57_77" x1="1015.49" y1="27.807" x2="1045.14" y2="3.13097" gradientUnits="userSpaceOnUse">
<stop offset="0.05" stop-color="white"/>
<stop offset="1" stop-color="#585858"/>
</linearGradient>
<clipPath id="clip0_57_77">
<rect width="1276" height="212" fill="white"/>
</clipPath>
</defs>
</svg>
