<svg width="114" height="114" viewBox="0 0 114 114" fill="none" xmlns="http://www.w3.org/2000/svg">
<rect width="114" height="114" rx="27" fill="#333030"/>
<path d="M47.416 60.8334L51.8109 56.4384C52.1704 56.0791 52.6578 55.8773 53.166 55.8773C53.6742 55.8773 54.1617 56.0791 54.5211 56.4384L57.5609 59.4783C57.9204 59.8376 58.4078 60.0394 58.916 60.0394C59.4242 60.0394 59.9117 59.8376 60.2711 59.4783L66.5827 53.1667M66.5827 53.1667V57.9584M66.5827 53.1667H61.791" stroke="white" stroke-width="1.5" stroke-linecap="round" stroke-linejoin="round"/>
<path d="M76.1663 57C76.1663 66.0352 76.1663 70.5528 73.3584 73.3588C70.5543 76.1667 66.0348 76.1667 56.9997 76.1667C47.9645 76.1667 43.4469 76.1667 40.639 73.3588C37.833 70.5547 37.833 66.0352 37.833 57C37.833 47.9648 37.833 43.4473 40.639 40.6393C43.4488 37.8333 47.9645 37.8333 56.9997 37.8333C66.0348 37.8333 70.5524 37.8333 73.3584 40.6393C75.2253 42.5062 75.8501 45.1301 76.0609 49.3333" stroke="white" stroke-width="1.5" stroke-linecap="round"/>
</svg>
