<svg width="53" height="53" viewBox="0 0 53 53" fill="none" xmlns="http://www.w3.org/2000/svg">
<rect x="0.5" y="0.5" width="52" height="52" rx="10.5" stroke="#C8CFD6"/>
<path d="M27.9998 29.75H26.9998C26.5898 29.75 26.2498 29.41 26.2498 29C26.2498 28.59 26.5898 28.25 26.9998 28.25H27.9998C28.6898 28.25 29.2498 27.69 29.2498 27V17.75H20.9998C19.8198 17.75 18.7398 18.39 18.1598 19.42C17.9598 19.78 17.4998 19.91 17.1398 19.71C16.7798 19.51 16.6498 19.05 16.8498 18.69C17.6898 17.19 19.2798 16.25 20.9998 16.25H29.9998C30.4098 16.25 30.7498 16.59 30.7498 17V27C30.7498 28.52 29.5198 29.75 27.9998 29.75Z" fill="#292D32"/>
<path d="M34 35.75H33C32.59 35.75 32.25 35.41 32.25 35C32.25 34.31 31.69 33.75 31 33.75C30.31 33.75 29.75 34.31 29.75 35C29.75 35.41 29.41 35.75 29 35.75H25C24.59 35.75 24.25 35.41 24.25 35C24.25 34.31 23.69 33.75 23 33.75C22.31 33.75 21.75 34.31 21.75 35C21.75 35.41 21.41 35.75 21 35.75H20C17.93 35.75 16.25 34.07 16.25 32C16.25 31.59 16.59 31.25 17 31.25C17.41 31.25 17.75 31.59 17.75 32C17.75 33.24 18.76 34.25 20 34.25H20.35C20.68 33.1 21.74 32.25 23 32.25C24.26 32.25 25.32 33.1 25.65 34.25H28.36C28.69 33.1 29.75 32.25 31.01 32.25C32.27 32.25 33.33 33.1 33.66 34.25H34C35.24 34.25 36.25 33.24 36.25 32V29.75H34C33.04 29.75 32.25 28.96 32.25 28V25C32.25 24.04 33.03 23.25 34 23.25L32.93 21.38C32.71 20.99 32.29 20.75 31.84 20.75H30.75V27C30.75 28.52 29.52 29.75 28 29.75H27C26.59 29.75 26.25 29.41 26.25 29C26.25 28.59 26.59 28.25 27 28.25H28C28.69 28.25 29.25 27.69 29.25 27V20C29.25 19.59 29.59 19.25 30 19.25H31.84C32.83 19.25 33.74 19.78 34.23 20.64L35.94 23.63C36.07 23.86 36.07 24.15 35.94 24.38C35.81 24.61 35.56 24.75 35.29 24.75H34C33.86 24.75 33.75 24.86 33.75 25V28C33.75 28.14 33.86 28.25 34 28.25H37C37.41 28.25 37.75 28.59 37.75 29V32C37.75 34.07 36.07 35.75 34 35.75Z" fill="#292D32"/>
<path d="M23 37.75C21.48 37.75 20.25 36.52 20.25 35C20.25 33.48 21.48 32.25 23 32.25C24.52 32.25 25.75 33.48 25.75 35C25.75 36.52 24.52 37.75 23 37.75ZM23 33.75C22.31 33.75 21.75 34.31 21.75 35C21.75 35.69 22.31 36.25 23 36.25C23.69 36.25 24.25 35.69 24.25 35C24.25 34.31 23.69 33.75 23 33.75Z" fill="#292D32"/>
<path d="M31 37.75C29.48 37.75 28.25 36.52 28.25 35C28.25 33.48 29.48 32.25 31 32.25C32.52 32.25 33.75 33.48 33.75 35C33.75 36.52 32.52 37.75 31 37.75ZM31 33.75C30.31 33.75 29.75 34.31 29.75 35C29.75 35.69 30.31 36.25 31 36.25C31.69 36.25 32.25 35.69 32.25 35C32.25 34.31 31.69 33.75 31 33.75Z" fill="#292D32"/>
<path d="M37 29.75H34C33.04 29.75 32.25 28.96 32.25 28V25C32.25 24.04 33.04 23.25 34 23.25H35.29C35.56 23.25 35.81 23.39 35.94 23.63L37.65 26.63C37.71 26.74 37.75 26.87 37.75 27V29C37.75 29.41 37.41 29.75 37 29.75ZM34 24.75C33.86 24.75 33.75 24.86 33.75 25V28C33.75 28.14 33.86 28.25 34 28.25H36.25V27.2L34.85 24.75H34Z" fill="#292D32"/>
<path d="M23 23.75H17C16.59 23.75 16.25 23.41 16.25 23C16.25 22.59 16.59 22.25 17 22.25H23C23.41 22.25 23.75 22.59 23.75 23C23.75 23.41 23.41 23.75 23 23.75Z" fill="#292D32"/>
<path d="M21 26.75H17C16.59 26.75 16.25 26.41 16.25 26C16.25 25.59 16.59 25.25 17 25.25H21C21.41 25.25 21.75 25.59 21.75 26C21.75 26.41 21.41 26.75 21 26.75Z" fill="#292D32"/>
<path d="M19 29.75H17C16.59 29.75 16.25 29.41 16.25 29C16.25 28.59 16.59 28.25 17 28.25H19C19.41 28.25 19.75 28.59 19.75 29C19.75 29.41 19.41 29.75 19 29.75Z" fill="#292D32"/>
</svg>
