<svg width="38" height="38" viewBox="0 0 38 38" fill="none" xmlns="http://www.w3.org/2000/svg">
<path d="M15.7186 4.76015L15.7189 4.75984C17.544 3.29403 20.4509 3.30495 22.298 4.77655C22.2982 4.77665 22.2983 4.77676 22.2984 4.77687L32.6649 13.07C32.6655 13.0705 32.6661 13.071 32.6667 13.0715C33.3122 13.5984 33.8562 14.4088 34.204 15.3191C34.5517 16.2291 34.6871 17.1961 34.5613 18.0184L32.5674 29.9503C32.5673 29.9508 32.5672 29.9513 32.5671 29.9518C32.1483 32.3588 29.8207 34.3333 27.3917 34.3333H10.6084C8.14639 34.3333 5.86756 32.4051 5.44883 29.9681C5.44877 29.9678 5.44871 29.9675 5.44865 29.9671L3.45402 18.0309L3.45383 18.0298C3.31335 17.201 3.44103 16.2313 3.78825 15.3208C4.13544 14.4103 4.68638 13.6003 5.34686 13.0733L5.34773 13.0726L15.7186 4.76015ZM19 30.1875C19.9253 30.1875 20.6875 29.4253 20.6875 28.5V23.75C20.6875 22.8247 19.9253 22.0625 19 22.0625C18.0747 22.0625 17.3125 22.8247 17.3125 23.75V28.5C17.3125 29.4253 18.0747 30.1875 19 30.1875Z" stroke="black"/>
</svg>
