<svg width="38" height="38" viewBox="0 0 38 38" fill="none" xmlns="http://www.w3.org/2000/svg">
<path d="M32.9809 12.6825L22.61 4.38582C20.5834 2.77082 17.4167 2.75499 15.4059 4.36999L5.03502 12.6825C3.54669 13.87 2.64419 16.245 2.96086 18.1133L4.95586 30.0517C5.41502 32.7275 7.90085 34.8333 10.6084 34.8333H27.3917C30.0675 34.8333 32.6009 32.68 33.06 30.0358L35.055 18.0975C35.34 16.245 34.4375 13.87 32.9809 12.6825ZM20.1875 28.5C20.1875 29.1492 19.6492 29.6875 19 29.6875C18.3509 29.6875 17.8125 29.1492 17.8125 28.5V23.75C17.8125 23.1008 18.3509 22.5625 19 22.5625C19.6492 22.5625 20.1875 23.1008 20.1875 23.75V28.5Z" fill="black"/>
</svg>
