<svg width="38" height="38" viewBox="0 0 38 38" fill="none" xmlns="http://www.w3.org/2000/svg">
<path d="M14.5033 17.2108C14.345 17.195 14.155 17.195 13.9808 17.2108C10.2125 17.0841 7.21997 13.9966 7.21997 10.1966C7.21997 6.31746 10.355 3.16663 14.25 3.16663C18.1291 3.16663 21.28 6.31746 21.28 10.1966C21.2641 13.9966 18.2716 17.0841 14.5033 17.2108Z" stroke="#292D32" stroke-width="1.5" stroke-linecap="round" stroke-linejoin="round"/>
<path d="M25.9824 6.33337C29.0541 6.33337 31.5241 8.81921 31.5241 11.875C31.5241 14.8675 29.1491 17.3059 26.1883 17.4167C26.0616 17.4009 25.9191 17.4009 25.7766 17.4167" stroke="#292D32" stroke-width="1.5" stroke-linecap="round" stroke-linejoin="round"/>
<path d="M6.58664 23.0534C2.75497 25.6184 2.75497 29.7984 6.58664 32.3475C10.9408 35.2609 18.0816 35.2609 22.4358 32.3475C26.2675 29.7825 26.2675 25.6025 22.4358 23.0534C18.0975 20.1559 10.9566 20.1559 6.58664 23.0534Z" stroke="#292D32" stroke-width="1.5" stroke-linecap="round" stroke-linejoin="round"/>
<path d="M29.0383 31.6666C30.1783 31.4291 31.255 30.97 32.1417 30.2891C34.6117 28.4366 34.6117 25.3808 32.1417 23.5283C31.2708 22.8633 30.21 22.42 29.0858 22.1666" stroke="#292D32" stroke-width="1.5" stroke-linecap="round" stroke-linejoin="round"/>
</svg>
