<svg width="38" height="38" viewBox="0 0 38 38" fill="none" xmlns="http://www.w3.org/2000/svg">
<path d="M14.25 3.16663C10.1016 3.16663 6.72913 6.53913 6.72913 10.6875C6.72913 14.7566 9.91163 18.05 14.06 18.1925C14.1866 18.1766 14.3133 18.1766 14.4083 18.1925C14.44 18.1925 14.4558 18.1925 14.4875 18.1925C14.5033 18.1925 14.5033 18.1925 14.5191 18.1925C18.5725 18.05 21.755 14.7566 21.7708 10.6875C21.7708 6.53913 18.3983 3.16663 14.25 3.16663Z" fill="#292D32"/>
<path d="M22.2934 22.4042C17.8759 19.4592 10.6717 19.4592 6.22256 22.4042C4.21173 23.75 3.10339 25.5709 3.10339 27.5184C3.10339 29.4658 4.21173 31.2709 6.20673 32.6009C8.42339 34.0892 11.3367 34.8334 14.2501 34.8334C17.1634 34.8334 20.0767 34.0892 22.2934 32.6009C24.2884 31.255 25.3967 29.45 25.3967 27.4867C25.3809 25.5392 24.2884 23.7342 22.2934 22.4042Z" fill="#292D32"/>
<path d="M31.6508 11.6217C31.9042 14.6933 29.7192 17.385 26.695 17.7492C26.6792 17.7492 26.6792 17.7492 26.6633 17.7492H26.6158C26.5208 17.7492 26.4258 17.7492 26.3467 17.7808C24.8108 17.86 23.4017 17.3692 22.3408 16.4667C23.9717 15.01 24.9058 12.825 24.7158 10.45C24.605 9.1675 24.1617 7.99583 23.4967 6.99833C24.0983 6.6975 24.795 6.5075 25.5075 6.44416C28.6108 6.175 31.3817 8.48666 31.6508 11.6217Z" fill="#292D32"/>
<path d="M34.8175 26.2675C34.6909 27.8033 33.7092 29.1333 32.0625 30.0358C30.4792 30.9066 28.4842 31.3183 26.505 31.2708C27.645 30.2416 28.31 28.9591 28.4367 27.5975C28.595 25.6341 27.6609 23.75 25.7925 22.2458C24.7317 21.4066 23.4967 20.7416 22.1509 20.2508C25.65 19.2375 30.0517 19.9183 32.7592 22.1033C34.2159 23.275 34.96 24.7475 34.8175 26.2675Z" fill="#292D32"/>
</svg>
