<svg width="14" height="14" viewBox="0 0 14 14" fill="none" xmlns="http://www.w3.org/2000/svg">
<path d="M12.0284 4.92918C11.4159 2.23418 9.06506 1.02084 7.00006 1.02084C7.00006 1.02084 7.00006 1.02084 6.99422 1.02084C4.93506 1.02084 2.57839 2.22834 1.96589 4.92334C1.28339 7.93334 3.12672 10.4825 4.79506 12.0867C5.41339 12.6817 6.20672 12.9792 7.00006 12.9792C7.79339 12.9792 8.58672 12.6817 9.19922 12.0867C10.8676 10.4825 12.7109 7.93918 12.0284 4.92918ZM7.00006 7.85168C5.98506 7.85168 5.16256 7.02918 5.16256 6.01418C5.16256 4.99918 5.98506 4.17668 7.00006 4.17668C8.01506 4.17668 8.83755 4.99918 8.83755 6.01418C8.83755 7.02918 8.01506 7.85168 7.00006 7.85168Z" fill="#292D32"/>
</svg>
