<svg width="26" height="26" viewBox="0 0 26 26" fill="none" xmlns="http://www.w3.org/2000/svg">
<path d="M12.935 20.8C13.39 20.8 13.7748 20.6427 14.0894 20.3281C14.404 20.0135 14.5609 19.6291 14.56 19.175C14.5591 18.7208 14.4023 18.336 14.0894 18.0206C13.7765 17.7051 13.3917 17.5482 12.935 17.55C12.4783 17.5517 12.0939 17.709 11.7819 18.0219C11.4699 18.3347 11.3126 18.7191 11.31 19.175C11.3074 19.6308 11.4647 20.0156 11.7819 20.3294C12.0991 20.6431 12.4835 20.8 12.935 20.8ZM11.765 15.795H14.17C14.17 15.08 14.2515 14.5167 14.4144 14.105C14.5773 13.6933 15.0375 13.13 15.795 12.415C16.3583 11.8517 16.8025 11.3152 17.1275 10.8056C17.4525 10.296 17.615 9.68413 17.615 8.96999C17.615 7.75666 17.1708 6.825 16.2825 6.175C15.3942 5.525 14.3433 5.2 13.13 5.2C11.895 5.2 10.8931 5.525 10.1244 6.175C9.35566 6.825 8.8192 7.605 8.515 8.515L10.66 9.35999C10.7683 8.97 11.0123 8.5475 11.3919 8.0925C11.7715 7.6375 12.3509 7.41 13.13 7.41C13.8233 7.41 14.3433 7.5998 14.69 7.9794C15.0367 8.35899 15.21 8.77586 15.21 9.22999C15.21 9.66333 15.08 10.0698 14.82 10.4494C14.56 10.829 14.235 11.1809 13.845 11.505C12.8917 12.35 12.3067 12.9892 12.09 13.4225C11.8733 13.8558 11.765 14.6467 11.765 15.795ZM13 26C11.2017 26 9.51166 25.6589 7.93 24.9769C6.34833 24.2948 4.9725 23.3683 3.8025 22.1975C2.6325 21.0266 1.70647 19.6508 1.0244 18.07C0.342335 16.4892 0.000868312 14.7992 1.64557e-06 13C-0.000865021 11.2008 0.340602 9.51079 1.0244 7.93C1.7082 6.3492 2.63423 4.97337 3.8025 3.8025C4.97077 2.63164 6.3466 1.7056 7.93 1.02441C9.5134 0.343206 11.2034 0.0017399 13 6.56564e-06C14.7966 -0.00172677 16.4866 0.33974 18.07 1.02441C19.6534 1.70907 21.0292 2.6351 22.1975 3.8025C23.3658 4.9699 24.2922 6.34573 24.9769 7.93C25.6616 9.51426 26.0026 11.2043 26 13C25.9974 14.7957 25.6559 16.4857 24.9756 18.07C24.2953 19.6542 23.3692 21.0301 22.1975 22.1975C21.0258 23.3649 19.6499 24.2913 18.07 24.9769C16.4901 25.6624 14.8001 26.0034 13 26Z" fill="black"/>
</svg>
