<svg width="36" height="36" viewBox="0 0 36 36" fill="none" xmlns="http://www.w3.org/2000/svg">
<path d="M18 34.215C16.965 34.215 15.99 33.69 15.3 32.775L13.05 29.775C13.005 29.715 12.825 29.64 12.75 29.625H12C5.745 29.625 1.875 27.93 1.875 19.5V12C1.875 5.37 5.37 1.875 12 1.875H24C30.63 1.875 34.125 5.37 34.125 12V19.5C34.125 26.13 30.63 29.625 24 29.625H23.25C23.13 29.625 23.025 29.685 22.95 29.775L20.7 32.775C20.01 33.69 19.035 34.215 18 34.215ZM12 4.125C6.63 4.125 4.125 6.63 4.125 12V19.5C4.125 26.28 6.45 27.375 12 27.375H12.75C13.515 27.375 14.385 27.81 14.85 28.425L17.1 31.425C17.625 32.115 18.375 32.115 18.9 31.425L21.15 28.425C21.645 27.765 22.425 27.375 23.25 27.375H24C29.37 27.375 31.875 24.87 31.875 19.5V12C31.875 6.63 29.37 4.125 24 4.125H12Z" fill="#292D32"/>
<path d="M25.5 13.125H10.5C9.885 13.125 9.375 12.615 9.375 12C9.375 11.385 9.885 10.875 10.5 10.875H25.5C26.115 10.875 26.625 11.385 26.625 12C26.625 12.615 26.115 13.125 25.5 13.125Z" fill="#292D32"/>
<path d="M19.5 20.625H10.5C9.885 20.625 9.375 20.115 9.375 19.5C9.375 18.885 9.885 18.375 10.5 18.375H19.5C20.115 18.375 20.625 18.885 20.625 19.5C20.625 20.115 20.115 20.625 19.5 20.625Z" fill="#292D32"/>
</svg>
