<svg width="36" height="36" viewBox="0 0 36 36" fill="none" xmlns="http://www.w3.org/2000/svg">
<path d="M25.5 3H10.5C6.36 3 3 6.345 3 10.47V19.44V20.94C3 25.065 6.36 28.41 10.5 28.41H12.75C13.155 28.41 13.695 28.68 13.95 29.01L16.2 31.995C17.19 33.315 18.81 33.315 19.8 31.995L22.05 29.01C22.335 28.635 22.785 28.41 23.25 28.41H25.5C29.64 28.41 33 25.065 33 20.94V10.47C33 6.345 29.64 3 25.5 3ZM19.5 20.625H10.5C9.885 20.625 9.375 20.115 9.375 19.5C9.375 18.885 9.885 18.375 10.5 18.375H19.5C20.115 18.375 20.625 18.885 20.625 19.5C20.625 20.115 20.115 20.625 19.5 20.625ZM25.5 13.125H10.5C9.885 13.125 9.375 12.615 9.375 12C9.375 11.385 9.885 10.875 10.5 10.875H25.5C26.115 10.875 26.625 11.385 26.625 12C26.625 12.615 26.115 13.125 25.5 13.125Z" fill="#292D32"/>
</svg>
