<svg width="36" height="36" viewBox="0 0 36 36" fill="none" xmlns="http://www.w3.org/2000/svg">
<path d="M30.2848 21.0931L28.5898 18.2731C28.2148 17.6581 27.8848 16.4731 27.8848 15.7531V12.9481C27.8848 7.50312 23.4598 3.07812 18.0298 3.07812C12.5848 3.09312 8.15982 7.50312 8.15982 12.9481V15.7381C8.15982 16.4581 7.82982 17.6431 7.46982 18.2581L5.77482 21.0781C5.12982 22.1731 4.97982 23.4181 5.38482 24.4981C5.78982 25.5931 6.70482 26.4631 7.90482 26.8531C9.52482 27.3931 11.1598 27.7831 12.8248 28.0681C12.9898 28.0981 13.1548 28.1131 13.3198 28.1431C13.5298 28.1731 13.7548 28.2031 13.9798 28.2331C14.3698 28.2931 14.7598 28.3381 15.1648 28.3681C16.1098 28.4581 17.0698 28.5031 18.0298 28.5031C18.9748 28.5031 19.9198 28.4581 20.8498 28.3681C21.1948 28.3381 21.5398 28.3081 21.8698 28.2631C22.1398 28.2331 22.4098 28.2031 22.6798 28.1581C22.8448 28.1431 23.0098 28.1131 23.1748 28.0831C24.8548 27.8131 26.5198 27.3931 28.1398 26.8531C29.2948 26.4631 30.1798 25.5931 30.5998 24.4831C31.0198 23.3581 30.8998 22.1281 30.2848 21.0931ZM19.1248 15.0031C19.1248 15.6331 18.6148 16.1431 17.9848 16.1431C17.3548 16.1431 16.8448 15.6331 16.8448 15.0031V10.3531C16.8448 9.72313 17.3548 9.21313 17.9848 9.21313C18.6148 9.21313 19.1248 9.72313 19.1248 10.3531V15.0031Z" fill="#292D32"/>
<path d="M22.2445 30.015C21.6145 31.755 19.9495 33 17.9995 33C16.8145 33 15.6445 32.52 14.8195 31.665C14.3395 31.215 13.9795 30.615 13.7695 30C13.9645 30.03 14.1595 30.045 14.3695 30.075C14.7145 30.12 15.0745 30.165 15.4345 30.195C16.2895 30.27 17.1595 30.315 18.0295 30.315C18.8845 30.315 19.7395 30.27 20.5795 30.195C20.8945 30.165 21.2095 30.15 21.5095 30.105C21.7495 30.075 21.9895 30.045 22.2445 30.015Z" fill="#292D32"/>
</svg>
