<svg width="36" height="36" viewBox="0 0 36 36" fill="none" xmlns="http://www.w3.org/2000/svg">
<path d="M18 15.78C17.385 15.78 16.875 15.27 16.875 14.655V9.65997C16.875 9.04497 17.385 8.53497 18 8.53497C18.615 8.53497 19.125 9.04497 19.125 9.65997V14.655C19.125 15.285 18.615 15.78 18 15.78Z" fill="#292D32"/>
<path d="M18.03 30.525C14.16 30.525 10.305 29.91 6.63004 28.68C5.26504 28.23 4.23004 27.255 3.78004 26.025C3.33004 24.795 3.48004 23.385 4.21504 22.155L6.12004 18.975C6.54004 18.27 6.91504 16.95 6.91504 16.125V12.975C6.91504 6.83998 11.895 1.85999 18.03 1.85999C24.165 1.85999 29.145 6.83998 29.145 12.975V16.125C29.145 16.935 29.52 18.27 29.94 18.975L31.845 22.155C32.55 23.325 32.67 24.72 32.205 25.995C31.74 27.27 30.72 28.245 29.43 28.68C25.755 29.925 21.9 30.525 18.03 30.525ZM18.03 4.12499C13.14 4.12499 9.16504 8.09998 9.16504 12.99V16.14C9.16504 17.355 8.68504 19.11 8.05504 20.145L6.15004 23.34C5.76004 23.985 5.67004 24.675 5.89504 25.275C6.12004 25.875 6.63004 26.325 7.35004 26.565C14.25 28.86 21.84 28.86 28.74 26.565C29.385 26.355 29.88 25.875 30.105 25.245C30.345 24.615 30.27 23.925 29.925 23.34L28.02 20.16C27.39 19.125 26.91 17.37 26.91 16.155V13.005C26.895 8.09999 22.92 4.12499 18.03 4.12499Z" fill="#292D32"/>
<path d="M18 34.35C16.395 34.35 14.82 33.69 13.68 32.55C12.54 31.41 11.88 29.835 11.88 28.23H14.13C14.13 29.25 14.55 30.24 15.27 30.96C15.99 31.68 16.98 32.1 18 32.1C20.13 32.1 21.87 30.36 21.87 28.23H24.12C24.12 31.605 21.375 34.35 18 34.35Z" fill="#292D32"/>
</svg>
