<svg width="38" height="38" viewBox="0 0 38 38" fill="none" xmlns="http://www.w3.org/2000/svg">
<path d="M36.4167 28.5C36.4167 29.6875 36.0842 30.8116 35.4983 31.7616C35.1658 32.3316 34.7383 32.8383 34.2475 33.25C33.1392 34.2475 31.6825 34.8333 30.0833 34.8333C28.1517 34.8333 26.4258 33.9625 25.2858 32.6008C25.2542 32.5533 25.2067 32.5216 25.175 32.4741C24.985 32.2525 24.8108 32.015 24.6683 31.7616C24.0825 30.8116 23.75 29.6875 23.75 28.5C23.75 26.505 24.6683 24.7158 26.125 23.56C27.2175 22.6891 28.595 22.1666 30.0833 22.1666C31.6667 22.1666 33.0917 22.7366 34.2 23.7024C34.39 23.8449 34.5642 24.0192 34.7225 24.1933C35.7675 25.3333 36.4167 26.8375 36.4167 28.5Z" stroke="#292D32" stroke-width="1.5" stroke-miterlimit="10" stroke-linecap="round" stroke-linejoin="round"/>
<path d="M32.4425 28.4684H27.7241" stroke="#292D32" stroke-width="1.5" stroke-miterlimit="10" stroke-linecap="round" stroke-linejoin="round"/>
<path d="M30.0833 26.1567V30.8909" stroke="#292D32" stroke-width="1.5" stroke-miterlimit="10" stroke-linecap="round" stroke-linejoin="round"/>
<path d="M5.01917 11.7799L19 19.8707L32.8858 11.8274" stroke="#292D32" stroke-width="1.5" stroke-linecap="round" stroke-linejoin="round"/>
<path d="M19 34.2157V19.8549" stroke="#292D32" stroke-width="1.5" stroke-linecap="round" stroke-linejoin="round"/>
<path d="M34.2158 14.5191V23.4809C34.2158 23.56 34.2159 23.6233 34.2 23.7024C33.0917 22.7366 31.6667 22.1667 30.0833 22.1667C28.595 22.1667 27.2175 22.6892 26.125 23.56C24.6683 24.7158 23.75 26.505 23.75 28.5C23.75 29.6875 24.0825 30.8117 24.6683 31.7617C24.8108 32.015 24.985 32.2525 25.175 32.4742L22.2775 34.0734C20.4725 35.0867 17.5275 35.0867 15.7225 34.0734L7.26751 29.3867C5.35167 28.3258 3.78418 25.6659 3.78418 23.4809V14.5191C3.78418 12.3341 5.35167 9.67416 7.26751 8.61333L15.7225 3.92663C17.5275 2.91329 20.4725 2.91329 22.2775 3.92663L30.7325 8.61333C32.6484 9.67416 34.2158 12.3341 34.2158 14.5191Z" stroke="#292D32" stroke-width="1.5" stroke-linecap="round" stroke-linejoin="round"/>
</svg>
