<svg width="38" height="38" viewBox="0 0 38 38" fill="none" xmlns="http://www.w3.org/2000/svg">
<path d="M19 29.2917V30.685C19 33.6458 20.1875 34.8333 23.1642 34.8333H30.685C32.9809 34.8333 34.8334 32.9808 34.8334 30.685V23.1642C34.8334 20.1875 33.6459 19 30.685 19H29.2917V24.5417C29.2917 27.17 27.17 29.2917 24.5417 29.2917H19Z" fill="#292D32"/>
<path d="M11.0833 21.375V22.7525C11.0833 25.0484 12.9516 26.9167 15.2475 26.9167H22.7683C25.7291 26.9167 26.9166 25.7292 26.9166 22.7525V15.2317C26.9166 12.9359 25.0641 11.0834 22.7683 11.0834H21.375V16.625C21.375 19.2534 19.2533 21.375 16.625 21.375H11.0833Z" fill="#292D32"/>
<path d="M3.16667 7.31496V14.8358C3.16667 17.8125 4.35417 19 7.33083 19H14.8517C17.8125 19 19 17.8125 19 14.8358V7.31496C19 4.35413 17.8125 3.16663 14.8517 3.16663H7.33083C4.35417 3.16663 3.16667 4.35413 3.16667 7.31496Z" fill="#292D32"/>
</svg>
