<svg width="38" height="38" viewBox="0 0 38 38" fill="none" xmlns="http://www.w3.org/2000/svg">
<path d="M31.9991 12.3817L19.8075 19.4433C19.3166 19.7283 18.6991 19.7283 18.1925 19.4433L6.00081 12.3817C5.12997 11.875 4.90831 10.6875 5.57331 9.94333C6.03247 9.42083 6.55497 8.99333 7.10914 8.6925L15.6908 3.9425C17.5275 2.91333 20.5041 2.91333 22.3408 3.9425L30.9225 8.6925C31.4766 8.99333 31.9991 9.43667 32.4583 9.94333C33.0916 10.6875 32.87 11.875 31.9991 12.3817Z" fill="#292D32"/>
<path d="M18.0976 22.3883V33.1867C18.0976 34.39 16.8784 35.1817 15.8017 34.6592C12.5401 33.06 7.04588 30.0675 7.04588 30.0675C5.11422 28.975 3.53088 26.22 3.53088 23.9558V15.7858C3.53088 14.535 4.84505 13.7433 5.92172 14.3608L17.3059 20.9633C17.7809 21.2642 18.0976 21.8025 18.0976 22.3883Z" fill="#292D32"/>
<path d="M19.9025 22.3883V33.1867C19.9025 34.39 21.1216 35.1817 22.1983 34.6592C25.46 33.06 30.9541 30.0675 30.9541 30.0675C32.8858 28.975 34.4691 26.22 34.4691 23.9558V15.7858C34.4691 14.535 33.155 13.7433 32.0783 14.3608L20.6941 20.9633C20.2191 21.2642 19.9025 21.8025 19.9025 22.3883Z" fill="#292D32"/>
</svg>
