<svg width="38" height="38" viewBox="0 0 38 38" fill="none" xmlns="http://www.w3.org/2000/svg">
<path d="M19 26.9167V30.685C19 33.6458 20.1875 34.8333 23.1642 34.8333H30.685C33.6459 34.8333 34.8334 33.6458 34.8334 30.685V23.1642C34.8334 20.1875 33.6459 19 30.685 19H26.9167V22.7525C26.9167 25.7292 25.7292 26.9167 22.7684 26.9167H19Z" stroke="#292D32" stroke-width="2" stroke-linecap="round" stroke-linejoin="round"/>
<path d="M11.0833 19V22.7525C11.0833 25.7292 12.2708 26.9167 15.2475 26.9167H22.7683C25.7291 26.9167 26.9166 25.7292 26.9166 22.7525V15.2317C26.9166 12.2709 25.7291 11.0834 22.7683 11.0834H19V14.8359C19 17.8125 17.8125 19 14.8516 19H11.0833Z" stroke="#292D32" stroke-width="2" stroke-linecap="round" stroke-linejoin="round"/>
<path d="M3.16667 7.31496V14.8358C3.16667 17.8125 4.35417 19 7.33083 19H14.8517C17.8125 19 19 17.8125 19 14.8358V7.31496C19 4.35413 17.8125 3.16663 14.8517 3.16663H7.33083C4.35417 3.16663 3.16667 4.35413 3.16667 7.31496Z" stroke="#292D32" stroke-width="2" stroke-linecap="round" stroke-linejoin="round"/>
</svg>
