<svg width="53" height="53" viewBox="0 0 53 53" fill="none" xmlns="http://www.w3.org/2000/svg">
<rect x="0.5" y="0.5" width="52" height="52" rx="10.5" stroke="#C8CFD6"/>
<path d="M26.9998 28.2999C26.8698 28.2999 26.7398 28.2699 26.6198 28.1999L17.7899 23.0899C17.4299 22.8799 17.3098 22.4199 17.5198 22.0599C17.7298 21.6999 18.1899 21.5799 18.5399 21.7899L26.9898 26.6799L35.3899 21.8199C35.7499 21.6099 36.2098 21.7399 36.4098 22.0899C36.6198 22.4499 36.4899 22.9099 36.1399 23.1199L27.3698 28.1999C27.2598 28.2599 27.1298 28.2999 26.9998 28.2999Z" fill="#292D32"/>
<path d="M27 37.3598C26.59 37.3598 26.25 37.0198 26.25 36.6098V27.5398C26.25 27.1298 26.59 26.7898 27 26.7898C27.41 26.7898 27.75 27.1298 27.75 27.5398V36.6098C27.75 37.0198 27.41 37.3598 27 37.3598Z" fill="#292D32"/>
<path d="M26.9999 37.7499C26.1199 37.7499 25.2399 37.5599 24.5599 37.1699L19.2199 34.2099C17.7699 33.4099 16.6299 31.4799 16.6299 29.8199V24.1599C16.6299 22.4999 17.7699 20.5799 19.2199 19.7699L24.5599 16.8099C25.9199 16.0399 28.0599 16.0399 29.4299 16.8099L34.7699 19.7699C36.2199 20.5699 37.3599 22.4999 37.3599 24.1599V29.8199C37.3599 29.9199 37.3599 29.9999 37.3399 30.0999C37.2899 30.3599 37.0999 30.5799 36.8499 30.6599C36.5999 30.7499 36.3199 30.6899 36.1099 30.5199C34.9599 29.5199 33.1799 29.4799 31.9699 30.4499C31.1999 31.0599 30.7499 31.9899 30.7499 32.9799C30.7499 33.5699 30.9099 34.1499 31.2199 34.6499C31.2999 34.7899 31.3799 34.8999 31.4699 35.0099C31.6199 35.1799 31.6799 35.4099 31.6399 35.6299C31.5999 35.8499 31.4599 36.0399 31.2599 36.1499L29.4299 37.1599C28.7499 37.5599 27.8799 37.7499 26.9999 37.7499ZM26.9999 17.7499C26.3799 17.7499 25.7499 17.8799 25.2999 18.1299L19.9599 21.09C18.9899 21.62 18.1499 23.0599 18.1499 24.1599V29.8199C18.1499 30.9199 18.9999 32.3599 19.9599 32.8899L25.2999 35.8499C26.2099 36.3599 27.7999 36.3599 28.7099 35.8499L29.8299 35.2299C29.4599 34.5599 29.2599 33.7799 29.2599 32.9799C29.2599 31.5199 29.9099 30.1699 31.0399 29.2699C32.3999 28.1799 34.3499 27.9499 35.8699 28.5999V24.1399C35.8699 23.0399 35.0199 21.5999 34.0599 21.0699L28.7199 18.1099C28.2499 17.8799 27.6199 17.7499 26.9999 17.7499Z" fill="#292D32"/>
<path d="M34 37.75C32.34 37.75 30.78 36.87 29.94 35.44C29.49 34.72 29.25 33.87 29.25 33C29.25 31.54 29.9 30.19 31.03 29.29C31.87 28.62 32.93 28.25 34 28.25C36.62 28.25 38.75 30.38 38.75 33C38.75 33.87 38.51 34.72 38.06 35.45C37.82 35.87 37.49 36.25 37.11 36.57C36.28 37.33 35.17 37.75 34 37.75ZM34 29.75C33.26 29.75 32.56 30 31.97 30.47C31.2 31.08 30.75 32.01 30.75 33C30.75 33.59 30.91 34.17 31.22 34.67C31.81 35.67 32.85 36.25 34 36.25C34.79 36.25 35.55 35.96 36.13 35.44C36.39 35.22 36.61 34.96 36.77 34.68C37.09 34.17 37.25 33.59 37.25 33C37.25 31.21 35.79 29.75 34 29.75Z" fill="#292D32"/>
<path d="M35.0699 34.7899C34.8799 34.7899 34.6899 34.72 34.5399 34.57L32.4299 32.46C32.1399 32.17 32.1399 31.69 32.4299 31.4C32.7199 31.11 33.1999 31.11 33.4899 31.4L35.5999 33.51C35.8899 33.8 35.8899 34.28 35.5999 34.57C35.4499 34.72 35.2599 34.7899 35.0699 34.7899Z" fill="#292D32"/>
<path d="M32.9301 34.8199C32.7401 34.8199 32.5501 34.7499 32.4001 34.5999C32.1101 34.3099 32.1101 33.8299 32.4001 33.5399L34.5101 31.4299C34.8001 31.1399 35.2801 31.1399 35.5701 31.4299C35.8601 31.7199 35.8601 32.1999 35.5701 32.4899L33.4601 34.5999C33.3101 34.7499 33.1201 34.8199 32.9301 34.8199Z" fill="#292D32"/>
</svg>
