<svg width="20" height="20" viewBox="0 0 20 20" fill="none" xmlns="http://www.w3.org/2000/svg">
<path d="M9.16663 17.2917C4.68329 17.2917 1.04163 13.65 1.04163 9.16666C1.04163 4.68333 4.68329 1.04166 9.16663 1.04166C13.65 1.04166 17.2916 4.68333 17.2916 9.16666C17.2916 13.65 13.65 17.2917 9.16663 17.2917ZM9.16663 2.29166C5.37496 2.29166 2.29163 5.375 2.29163 9.16666C2.29163 12.9583 5.37496 16.0417 9.16663 16.0417C12.9583 16.0417 16.0416 12.9583 16.0416 9.16666C16.0416 5.375 12.9583 2.29166 9.16663 2.29166Z" fill="#9EA4AB"/>
<path d="M16.8 18.9917C16.7333 18.9917 16.6666 18.9833 16.6083 18.975C16.2166 18.925 15.5083 18.6583 15.1083 17.4667C14.9 16.8417 14.975 16.2167 15.3166 15.7417C15.6583 15.2667 16.2333 15 16.8916 15C17.7416 15 18.4083 15.325 18.7083 15.9C19.0083 16.475 18.925 17.2083 18.45 17.9167C17.8583 18.8083 17.2166 18.9917 16.8 18.9917ZM16.3 17.075C16.4416 17.5083 16.6416 17.725 16.775 17.7417C16.9083 17.7583 17.1583 17.6 17.4166 17.225C17.6583 16.8667 17.675 16.6083 17.6166 16.4917C17.5583 16.375 17.325 16.25 16.8916 16.25C16.6333 16.25 16.4416 16.3333 16.3333 16.475C16.2333 16.6167 16.2166 16.8333 16.3 17.075Z" fill="#9EA4AB"/>
</svg>
