<svg width="36" height="36" viewBox="0 0 36 36" fill="none" xmlns="http://www.w3.org/2000/svg">
<path d="M18 33.945C16.995 33.945 15.975 33.72 15.18 33.255L6.92999 28.5C3.56999 26.235 3.35999 25.89 3.35999 22.335V13.665C3.35999 10.11 3.55499 9.76501 6.85499 7.53001L15.165 2.73001C16.74 1.81501 19.215 1.81501 20.79 2.73001L29.07 7.50001C32.43 9.76501 32.64 10.11 32.64 13.665V22.32C32.64 25.875 32.445 26.22 29.145 28.455L20.835 33.255C20.025 33.72 19.005 33.945 18 33.945ZM18 4.30501C17.37 4.30501 16.755 4.42501 16.32 4.68001L8.06999 9.45001C5.62499 11.1 5.62499 11.1 5.62499 13.665V22.32C5.62499 24.885 5.62499 24.885 8.12999 26.58L16.32 31.305C17.205 31.815 18.81 31.815 19.695 31.305L27.945 26.535C30.375 24.885 30.375 24.885 30.375 22.32V13.665C30.375 11.1 30.375 11.1 27.87 9.40501L19.68 4.68001C19.245 4.42501 18.63 4.30501 18 4.30501Z" fill="#292D32"/>
<path d="M18 23.625C14.895 23.625 12.375 21.105 12.375 18C12.375 14.895 14.895 12.375 18 12.375C21.105 12.375 23.625 14.895 23.625 18C23.625 21.105 21.105 23.625 18 23.625ZM18 14.625C16.14 14.625 14.625 16.14 14.625 18C14.625 19.86 16.14 21.375 18 21.375C19.86 21.375 21.375 19.86 21.375 18C21.375 16.14 19.86 14.625 18 14.625Z" fill="#292D32"/>
</svg>
