<svg width="36" height="36" viewBox="0 0 36 36" fill="none" xmlns="http://www.w3.org/2000/svg">
<path d="M28.4091 8.13016L20.6541 3.64516C19.1691 2.79016 16.8441 2.79016 15.3591 3.64516L7.52914 8.16016C4.42414 10.2602 4.24414 10.5752 4.24414 13.9202V22.0652C4.24414 25.4102 4.42414 25.7402 7.58914 27.8702L15.3441 32.3552C16.0941 32.7902 17.0541 33.0002 17.9991 33.0002C18.9441 33.0002 19.9041 32.7902 20.6391 32.3552L28.4691 27.8402C31.5741 25.7402 31.7541 25.4252 31.7541 22.0802V13.9202C31.7541 10.5752 31.5741 10.2602 28.4091 8.13016ZM17.9991 22.8752C15.3141 22.8752 13.1241 20.6852 13.1241 18.0002C13.1241 15.3152 15.3141 13.1252 17.9991 13.1252C20.6841 13.1252 22.8741 15.3152 22.8741 18.0002C22.8741 20.6852 20.6841 22.8752 17.9991 22.8752Z" fill="#292D32"/>
</svg>
