<svg width="53" height="53" viewBox="0 0 53 53" fill="none" xmlns="http://www.w3.org/2000/svg">
<rect x="0.5" y="0.5" width="52" height="52" rx="10.5" stroke="#C8CFD6"/>
<path d="M26.9999 27.4083C26.859 27.4083 26.7182 27.3758 26.5882 27.3L17.0224 21.7642C16.6324 21.5367 16.5024 21.0383 16.7299 20.6483C16.9574 20.2583 17.4449 20.1283 17.8457 20.3558L26.9999 25.6533L36.0999 20.3883C36.4899 20.1608 36.9882 20.3017 37.2157 20.6809C37.4432 21.0709 37.3024 21.5692 36.9232 21.7967L27.4224 27.3C27.2816 27.365 27.1407 27.4083 26.9999 27.4083Z" fill="#292D32"/>
<path d="M27 37.2234C26.5558 37.2234 26.1875 36.855 26.1875 36.4109V26.585C26.1875 26.1409 26.5558 25.7725 27 25.7725C27.4442 25.7725 27.8125 26.1409 27.8125 26.585V36.4109C27.8125 36.855 27.4442 37.2234 27 37.2234Z" fill="#292D32"/>
<path d="M27.0002 37.6458C26.0468 37.6458 25.1043 37.44 24.3568 37.0283L18.5718 33.8108C17.001 32.9442 15.7769 30.8533 15.7769 29.055V22.9341C15.7769 21.1358 17.001 19.0559 18.5718 18.1784L24.3568 14.9717C25.841 14.1483 28.1593 14.1483 29.6435 14.9717L35.4285 18.1891C36.9993 19.0558 38.2235 21.1466 38.2235 22.945V29.0658C38.2235 30.8642 36.9993 32.9441 35.4285 33.8216L29.6435 37.0283C28.896 37.44 27.9535 37.6458 27.0002 37.6458ZM27.0002 15.9792C26.3177 15.9792 25.646 16.12 25.1477 16.3908L19.3627 19.6083C18.3227 20.1933 17.4019 21.7425 17.4019 22.945V29.0658C17.4019 30.2575 18.3227 31.8175 19.3627 32.4025L25.1477 35.62C26.1335 36.1725 27.8668 36.1725 28.8527 35.62L34.6377 32.4025C35.6777 31.8175 36.5985 30.2683 36.5985 29.0658V22.945C36.5985 21.7533 35.6777 20.1933 34.6377 19.6083L28.8527 16.3908C28.3543 16.12 27.6827 15.9792 27.0002 15.9792Z" fill="#292D32"/>
<path d="M32.4169 28.1559C31.9727 28.1559 31.6044 27.7875 31.6044 27.3434V23.8551L21.7244 18.1567C21.3344 17.9292 21.2044 17.4309 21.4319 17.0517C21.6594 16.6617 22.1469 16.5317 22.5369 16.7592L32.8177 22.6959C33.0669 22.8367 33.2294 23.1075 33.2294 23.4V27.3651C33.2294 27.7876 32.8611 28.1559 32.4169 28.1559Z" fill="#292D32"/>
</svg>
