  <svg width="60" height="60" viewBox="0 0 20 18" fill="none" xmlns="http://www.w3.org/2000/svg">
                     <path d="M19.1718 12.3987L13.2598 2.54472C12.4838 1.25172 11.2968 0.511719 10.0008 0.511719C8.70478 0.511719 7.51778 1.25172 6.74178 2.54272L0.829784 12.3987C0.0437844 13.7077 -0.0422156 15.1037 0.594784 16.2287C1.23078 17.3547 2.47278 18.0007 4.00078 18.0007H16.0008C17.5288 18.0007 18.7708 17.3547 19.4068 16.2297C20.0428 15.1047 19.9578 13.7087 19.1718 12.3987ZM10.0008 14.5497C9.14678 14.5497 8.45078 13.8547 8.45078 13.0007C8.45078 12.1457 9.14578 11.4497 10.0008 11.4497C10.8558 11.4497 11.5508 12.1457 11.5508 13.0007C11.5508 13.8547 10.8548 14.5497 10.0008 14.5497ZM11.6338 7.12572C11.6228 7.15672 10.2328 10.5937 10.2328 10.5937C10.1948 10.6877 10.1028 10.7497 10.0018 10.7497C9.90078 10.7497 9.80878 10.6877 9.77078 10.5937L8.37978 7.15572C8.29632 6.94734 8.25257 6.72519 8.25078 6.50072C8.25078 5.53572 9.03578 4.75072 10.0008 4.75072C10.2842 4.75145 10.5632 4.82092 10.8139 4.95318C11.0645 5.08544 11.2794 5.27654 11.44 5.51008C11.6005 5.74362 11.7021 6.01263 11.7358 6.29403C11.7696 6.57543 11.7346 6.86082 11.6338 7.12572Z" fill="#FFCB00"/>
                 </svg>